<svg 
 xmlns="http://www.w3.org/2000/svg"
 xmlns:xlink="http://www.w3.org/1999/xlink"
 width="10px" height="10px">
<path fill-rule="evenodd"  fill="rgb(131, 131, 131)"
 d="M1.241,0.000 C1.708,-0.006 1.954,0.225 2.184,0.455 C2.284,0.554 2.384,0.654 2.484,0.753 C3.321,1.589 4.160,2.424 4.997,3.259 C4.998,3.259 4.999,3.259 4.999,3.259 C5.640,2.620 6.280,1.982 6.921,1.343 C7.164,1.101 7.407,0.859 7.651,0.616 C7.809,0.458 7.958,0.285 8.153,0.164 C8.581,-0.100 9.085,-0.013 9.445,0.245 C9.507,0.290 9.573,0.339 9.622,0.396 C9.692,0.477 9.762,0.553 9.820,0.647 C10.015,0.961 10.082,1.419 9.879,1.781 C9.752,2.006 9.570,2.165 9.395,2.340 C9.172,2.562 8.949,2.785 8.726,3.007 C8.063,3.668 7.399,4.330 6.736,4.991 C6.736,4.992 6.736,4.993 6.736,4.993 C7.377,5.631 8.018,6.270 8.658,6.908 C8.902,7.151 9.145,7.394 9.389,7.637 C9.546,7.793 9.718,7.940 9.838,8.133 C10.101,8.555 10.024,9.051 9.766,9.415 C9.719,9.482 9.666,9.552 9.604,9.605 C9.520,9.677 9.439,9.749 9.340,9.808 C9.021,9.996 8.574,10.055 8.217,9.855 C7.992,9.730 7.833,9.549 7.658,9.375 C7.435,9.152 7.212,8.930 6.989,8.708 C6.326,8.046 5.662,7.385 4.999,6.724 C4.998,6.724 4.997,6.725 4.996,6.725 C4.356,7.364 3.714,8.003 3.073,8.642 C2.830,8.885 2.586,9.127 2.343,9.370 C2.186,9.526 2.039,9.698 1.846,9.817 C1.408,10.088 0.897,9.994 0.535,9.726 C0.474,9.681 0.410,9.631 0.361,9.573 C0.283,9.483 0.209,9.395 0.148,9.287 C-0.035,8.968 -0.068,8.530 0.123,8.192 C0.246,7.975 0.424,7.819 0.594,7.650 C0.818,7.426 1.043,7.202 1.267,6.979 C1.932,6.317 2.596,5.654 3.260,4.993 C3.025,4.758 2.790,4.523 2.555,4.289 C2.030,3.765 1.505,3.242 0.980,2.719 C0.821,2.559 0.661,2.400 0.501,2.242 C0.385,2.125 0.262,2.015 0.172,1.873 C0.109,1.774 0.056,1.665 0.023,1.537 C-0.017,1.387 -0.016,1.175 0.021,1.023 C0.130,0.568 0.462,0.226 0.873,0.072 C0.948,0.044 1.030,0.024 1.120,0.011 C1.160,0.007 1.201,0.004 1.241,0.000 Z"/>
</svg>
