<svg 
 xmlns="http://www.w3.org/2000/svg"
 xmlns:xlink="http://www.w3.org/1999/xlink"
 width="7px" height="11px">
<path fill-rule="evenodd"  fill="rgb(0, 122, 200)"
 d="M4.650,5.502 L0.184,1.386 C0.061,1.273 -0.006,1.121 -0.006,0.960 C-0.006,0.799 0.061,0.648 0.184,0.535 L0.576,0.174 C0.698,0.061 0.862,-0.002 1.037,-0.002 C1.212,-0.002 1.376,0.061 1.499,0.174 L6.816,5.075 C6.939,5.189 7.007,5.341 7.006,5.502 C7.007,5.664 6.939,5.816 6.816,5.929 L1.504,10.826 C1.381,10.939 1.217,11.002 1.042,11.002 C0.867,11.002 0.703,10.939 0.580,10.826 L0.189,10.465 C-0.065,10.231 -0.065,9.849 0.189,9.614 L4.650,5.502 Z"/>
</svg>
