<svg 
 xmlns="http://www.w3.org/2000/svg"
 xmlns:xlink="http://www.w3.org/1999/xlink"
 width="14px" height="13px">
<path fill-rule="evenodd"  fill="rgb(0, 162, 224)"
 d="M6.873,0.012 C8.283,0.006 9.409,0.366 10.309,0.903 C10.485,1.008 10.654,1.116 10.821,1.229 C10.878,1.269 10.934,1.310 10.991,1.350 C10.606,1.680 10.221,2.009 9.836,2.338 C9.702,2.262 9.572,2.173 9.430,2.105 C9.068,1.932 8.695,1.773 8.266,1.663 C8.016,1.599 7.754,1.566 7.473,1.528 C7.347,1.511 7.218,1.524 7.086,1.508 C7.027,1.508 6.969,1.508 6.911,1.508 C6.800,1.513 6.689,1.518 6.578,1.523 C6.425,1.543 6.276,1.551 6.132,1.578 C5.740,1.650 5.380,1.745 5.049,1.880 C3.264,2.608 1.905,4.171 1.492,6.353 C1.252,7.620 1.476,8.940 1.857,9.867 C1.990,10.193 2.151,10.490 2.321,10.776 C2.472,11.029 2.653,11.255 2.831,11.479 C2.956,11.635 3.115,11.751 3.192,11.959 C3.421,12.577 2.843,13.188 2.265,12.925 C2.114,12.857 2.016,12.737 1.917,12.614 C1.833,12.515 1.749,12.417 1.665,12.318 C1.517,12.127 1.375,11.933 1.240,11.729 C0.711,10.928 0.322,9.996 0.108,8.860 C0.057,8.588 0.039,8.304 0.005,8.004 C0.000,7.872 -0.005,7.739 -0.010,7.607 C-0.009,7.474 -0.007,7.342 -0.006,7.209 C-0.002,7.127 0.001,7.045 0.005,6.963 C0.028,6.757 0.036,6.557 0.067,6.364 C0.148,5.855 0.249,5.387 0.401,4.955 C1.003,3.244 2.014,1.983 3.381,1.086 C3.815,0.801 4.303,0.550 4.834,0.375 C5.232,0.243 5.647,0.145 6.110,0.070 C6.278,0.043 6.453,0.043 6.631,0.021 C6.712,0.018 6.793,0.015 6.873,0.012 ZM12.258,1.466 C12.333,1.464 12.380,1.493 12.414,1.535 C12.549,1.705 12.365,1.869 12.285,1.976 C11.908,2.476 11.531,2.976 11.154,3.475 C10.254,4.667 9.354,5.859 8.455,7.050 C8.460,7.112 8.465,7.173 8.471,7.235 C8.483,7.351 8.467,7.477 8.449,7.575 C8.370,8.009 8.171,8.323 7.895,8.547 C7.498,8.870 6.914,8.980 6.371,8.721 C6.215,8.647 6.094,8.539 5.972,8.429 C5.889,8.353 5.818,8.250 5.758,8.150 C5.399,7.547 5.472,6.800 5.857,6.291 C6.041,6.048 6.295,5.866 6.616,5.770 C6.720,5.739 6.884,5.701 7.019,5.718 C7.050,5.721 7.216,5.745 7.226,5.741 C7.302,5.676 7.378,5.610 7.455,5.545 C8.581,4.579 9.708,3.612 10.834,2.646 C11.154,2.371 11.475,2.096 11.795,1.822 C11.878,1.751 11.961,1.680 12.044,1.608 C12.112,1.551 12.158,1.493 12.258,1.466 ZM12.594,3.005 C12.612,3.031 12.631,3.058 12.650,3.084 C12.701,3.162 12.752,3.239 12.803,3.316 C12.985,3.592 13.158,3.896 13.293,4.215 C13.378,4.415 13.469,4.617 13.546,4.829 C13.714,5.287 13.834,5.780 13.923,6.324 C13.981,6.683 14.007,7.068 14.007,7.484 C14.007,9.133 13.544,10.408 12.943,11.428 C12.758,11.741 12.554,12.030 12.338,12.309 C12.238,12.437 12.123,12.551 12.022,12.677 C11.895,12.834 11.703,13.022 11.400,12.983 C10.955,12.927 10.595,12.455 10.818,11.924 C10.877,11.784 10.978,11.702 11.065,11.594 C11.156,11.482 11.254,11.375 11.342,11.258 C11.640,10.865 11.904,10.430 12.110,9.939 C12.276,9.543 12.410,9.115 12.500,8.636 C12.654,7.822 12.628,6.754 12.431,6.010 C12.312,5.557 12.180,5.128 11.983,4.756 C11.922,4.640 11.861,4.524 11.800,4.408 C11.762,4.343 11.723,4.278 11.684,4.212 C11.988,3.810 12.291,3.407 12.594,3.005 Z"/>
</svg>
