<svg 
 xmlns="http://www.w3.org/2000/svg"
 xmlns:xlink="http://www.w3.org/1999/xlink"
 width="17px" height="17px">
<path fill-rule="evenodd"  fill="rgb(255, 255, 255)"
 d="M16.771,9.122 C16.504,9.398 16.227,9.365 15.960,9.365 C15.584,9.365 15.207,9.365 14.831,9.365 C13.005,9.364 11.178,9.364 9.352,9.363 C9.351,9.364 9.351,9.365 9.350,9.366 C9.351,11.367 9.352,13.368 9.353,15.369 C9.352,15.553 9.352,15.738 9.352,15.923 C9.352,16.051 9.362,16.183 9.345,16.311 C9.307,16.605 9.116,16.859 8.795,16.964 C8.699,16.996 8.591,17.018 8.495,17.011 C8.373,17.002 8.258,16.990 8.135,16.940 C7.602,16.723 7.647,16.236 7.646,15.878 C7.646,15.681 7.646,15.482 7.646,15.284 C7.646,13.311 7.645,11.337 7.645,9.363 C7.645,9.363 7.644,9.362 7.643,9.362 C5.640,9.362 3.635,9.362 1.632,9.362 C1.453,9.362 1.275,9.361 1.097,9.361 C0.958,9.361 0.814,9.373 0.676,9.351 C0.395,9.306 0.126,9.105 0.039,8.793 C0.010,8.690 -0.011,8.581 -0.003,8.477 C0.006,8.364 0.022,8.255 0.068,8.141 C0.285,7.610 0.775,7.655 1.131,7.655 C1.329,7.655 1.527,7.655 1.725,7.655 C3.698,7.655 5.671,7.656 7.644,7.657 C7.644,7.657 7.645,7.657 7.645,7.656 C7.644,5.653 7.643,3.649 7.642,1.645 C7.642,1.467 7.642,1.289 7.642,1.110 C7.642,0.971 7.630,0.826 7.653,0.687 C7.697,0.408 7.898,0.139 8.208,0.053 C8.312,0.023 8.422,0.002 8.526,0.010 C8.638,0.019 8.747,0.035 8.860,0.081 C9.393,0.298 9.348,0.784 9.348,1.142 C9.348,1.340 9.349,1.540 9.349,1.738 C9.349,3.711 9.349,5.684 9.349,7.657 C11.129,7.658 12.909,7.659 14.688,7.659 C15.036,7.659 15.385,7.659 15.733,7.659 C15.911,7.659 16.097,7.644 16.275,7.664 C16.367,7.674 16.458,7.698 16.550,7.739 C17.010,7.950 17.060,8.526 16.943,8.837 C16.918,8.902 16.887,8.967 16.843,9.033 C16.819,9.063 16.795,9.092 16.771,9.122 Z"/>
</svg>
