<svg 
 xmlns="http://www.w3.org/2000/svg"
 xmlns:xlink="http://www.w3.org/1999/xlink"
 width="12px" height="11px">
<path fill-rule="evenodd"  fill="rgb(255, 167, 0)"
 d="M3.813,3.442 C5.784,1.460 7.817,0.706 9.810,0.409 C10.199,0.351 10.589,0.339 10.978,0.314 C11.143,0.314 11.309,0.313 11.475,0.313 C11.475,0.314 11.476,0.315 11.476,0.316 C11.480,0.678 11.485,1.041 11.489,1.403 C11.489,1.404 11.489,1.404 11.488,1.404 C11.356,1.404 11.223,1.404 11.091,1.404 C10.976,1.408 10.862,1.412 10.747,1.416 C10.527,1.433 10.307,1.450 10.086,1.477 C8.812,1.633 7.555,2.056 6.287,2.841 C5.966,3.040 5.661,3.281 5.337,3.534 C5.174,3.661 5.034,3.820 4.863,3.957 C4.781,4.038 4.698,4.120 4.616,4.201 C4.574,4.245 4.531,4.289 4.489,4.333 C4.380,4.455 4.271,4.578 4.162,4.701 C3.919,5.012 3.680,5.295 3.489,5.602 C3.310,5.890 3.142,6.169 2.995,6.453 C2.512,7.387 2.234,8.339 2.091,9.279 C2.032,9.668 2.014,10.052 1.989,10.440 C1.988,10.595 1.988,10.750 1.987,10.905 C1.987,10.906 1.987,10.906 1.987,10.906 C1.623,10.901 1.259,10.895 0.896,10.890 C0.896,10.719 0.897,10.548 0.897,10.377 C0.919,10.043 0.932,9.708 0.973,9.373 C1.128,8.094 1.522,6.833 2.225,5.559 C2.492,5.075 2.829,4.615 3.203,4.127 C3.332,3.959 3.491,3.809 3.630,3.636 C3.691,3.571 3.752,3.507 3.813,3.442 ZM5.827,5.358 C7.273,3.898 8.800,3.348 10.265,3.129 C10.556,3.085 10.848,3.079 11.138,3.060 C11.262,3.060 11.385,3.060 11.508,3.060 C11.509,3.061 11.509,3.062 11.510,3.063 C11.513,3.426 11.517,3.789 11.520,4.152 C11.445,4.151 11.369,4.151 11.294,4.150 C11.115,4.162 10.935,4.158 10.755,4.176 C9.760,4.273 8.790,4.556 7.798,5.171 C7.571,5.312 7.355,5.483 7.125,5.661 C6.856,5.869 6.520,6.197 6.306,6.470 C6.120,6.707 5.938,6.921 5.792,7.155 C5.242,8.040 4.938,8.891 4.805,9.776 C4.763,10.058 4.752,10.335 4.734,10.615 C4.734,10.723 4.734,10.830 4.734,10.938 C4.733,10.938 4.732,10.939 4.731,10.939 C4.368,10.934 4.005,10.929 3.643,10.924 C3.643,10.804 3.643,10.684 3.643,10.563 C3.659,10.311 3.665,10.060 3.695,9.808 C3.812,8.845 4.103,7.900 4.634,6.940 C4.834,6.577 5.089,6.231 5.372,5.865 C5.475,5.747 5.577,5.630 5.679,5.513 C5.728,5.461 5.777,5.410 5.827,5.358 ZM7.788,7.328 C8.769,6.334 9.794,5.960 10.791,5.840 C10.958,5.820 11.125,5.817 11.292,5.806 C11.375,5.806 11.458,5.807 11.541,5.807 C11.541,5.808 11.542,5.809 11.542,5.810 C11.547,6.172 11.552,6.535 11.556,6.897 C11.555,6.897 11.554,6.898 11.553,6.898 C11.398,6.883 11.231,6.897 11.076,6.912 C10.489,6.969 9.918,7.131 9.333,7.486 C8.815,7.801 8.272,8.374 7.993,8.879 C7.866,9.107 7.771,9.332 7.687,9.558 C7.582,9.843 7.534,10.142 7.501,10.429 C7.480,10.605 7.464,10.795 7.481,10.971 C7.480,10.972 7.480,10.972 7.479,10.973 C7.116,10.968 6.753,10.962 6.390,10.956 C6.390,10.882 6.389,10.808 6.389,10.734 C6.398,10.591 6.399,10.447 6.413,10.304 C6.476,9.660 6.661,9.018 7.010,8.377 C7.141,8.137 7.306,7.908 7.490,7.665 C7.558,7.586 7.627,7.506 7.695,7.427 C7.726,7.394 7.757,7.361 7.788,7.328 ZM9.916,9.385 C10.376,8.916 11.204,8.992 11.509,9.673 C11.662,10.013 11.624,10.370 11.349,10.707 C11.280,10.792 11.190,10.849 11.117,10.890 C10.710,11.115 10.041,11.041 9.763,10.446 C9.633,10.167 9.630,9.864 9.772,9.589 C9.809,9.519 9.868,9.463 9.916,9.385 Z"/>
</svg>
