<svg 
 xmlns="http://www.w3.org/2000/svg"
 xmlns:xlink="http://www.w3.org/1999/xlink"
 width="17px" height="11px">
<path fill-rule="evenodd"  fill="rgb(147, 147, 147)"
 d="M8.341,0.015 C10.657,0.007 12.326,0.634 13.739,1.511 C14.512,1.992 15.190,2.595 15.752,3.283 C16.137,3.754 16.492,4.272 16.760,4.856 C16.810,4.966 16.859,5.076 16.909,5.186 C16.951,5.285 17.012,5.393 16.994,5.543 C16.965,5.778 16.819,6.012 16.731,6.204 C16.497,6.711 16.185,7.168 15.856,7.586 C14.710,9.046 13.114,10.088 11.057,10.656 C10.655,10.767 10.229,10.836 9.780,10.904 C8.730,11.063 7.392,10.989 6.464,10.781 C6.076,10.695 5.701,10.615 5.352,10.488 C5.002,10.360 4.666,10.233 4.340,10.090 C4.029,9.953 3.732,9.789 3.451,9.619 C2.635,9.124 1.903,8.533 1.311,7.818 C0.887,7.307 0.497,6.756 0.204,6.117 C0.116,5.925 -0.081,5.616 0.004,5.342 C0.059,5.166 0.148,5.003 0.223,4.841 C0.440,4.369 0.721,3.947 1.015,3.549 C1.164,3.346 1.330,3.160 1.493,2.971 C1.560,2.901 1.627,2.831 1.694,2.761 C1.799,2.641 1.922,2.526 2.045,2.423 C2.287,2.220 2.520,2.006 2.782,1.820 C3.671,1.191 4.661,0.695 5.858,0.359 C6.365,0.217 6.902,0.139 7.486,0.063 C7.681,0.037 7.884,0.044 8.089,0.021 C8.173,0.019 8.257,0.017 8.341,0.015 ZM8.431,2.354 C8.325,2.361 8.219,2.368 8.113,2.375 C7.889,2.407 7.687,2.449 7.495,2.508 C6.495,2.811 5.798,3.538 5.442,4.476 C5.329,4.773 5.224,5.267 5.272,5.688 C5.297,5.900 5.313,6.090 5.364,6.271 C5.659,7.299 6.304,8.012 7.250,8.401 C7.543,8.521 7.855,8.591 8.236,8.634 C8.333,8.645 8.454,8.656 8.562,8.644 C8.643,8.639 8.724,8.635 8.805,8.630 C8.966,8.609 9.116,8.587 9.261,8.553 C10.304,8.307 11.079,7.602 11.463,6.707 C11.584,6.427 11.654,6.127 11.698,5.766 C11.709,5.674 11.722,5.561 11.711,5.459 C11.697,5.335 11.702,5.215 11.684,5.100 C11.638,4.805 11.569,4.547 11.469,4.309 C11.021,3.247 9.966,2.352 8.431,2.354 ZM8.437,4.381 C9.087,4.375 9.511,4.774 9.616,5.301 C9.659,5.521 9.617,5.766 9.548,5.928 C9.383,6.312 9.055,6.568 8.547,6.617 C8.404,6.631 8.265,6.602 8.159,6.571 C7.633,6.414 7.144,5.814 7.412,5.112 C7.538,4.783 7.795,4.537 8.148,4.430 C8.237,4.403 8.332,4.404 8.437,4.381 Z"/>
</svg>
