<svg 
 xmlns="http://www.w3.org/2000/svg"
 xmlns:xlink="http://www.w3.org/1999/xlink"
 width="17px" height="17px">
<path fill-rule="evenodd"  fill="rgb(0, 162, 224)"
 d="M3.000,-0.000 L14.000,-0.000 C15.657,-0.000 17.000,1.343 17.000,3.000 L17.000,14.000 C17.000,15.657 15.657,17.000 14.000,17.000 L3.000,17.000 C1.343,17.000 -0.000,15.657 -0.000,14.000 L-0.000,3.000 C-0.000,1.343 1.343,-0.000 3.000,-0.000 Z"/>
<path fill-rule="evenodd"  fill="rgb(255, 255, 255)"
 d="M13.733,3.010 C14.638,2.996 15.332,4.056 14.811,4.893 C14.734,5.017 14.631,5.113 14.532,5.214 C14.404,5.343 14.276,5.472 14.148,5.602 C13.712,6.043 13.276,6.484 12.840,6.925 C11.423,8.357 10.006,9.790 8.589,11.223 C8.251,11.565 7.912,11.907 7.574,12.249 C7.369,12.427 7.214,12.661 6.982,12.811 C6.818,12.916 6.558,13.033 6.268,12.997 C5.830,12.944 5.625,12.761 5.382,12.516 C5.294,12.427 5.205,12.337 5.117,12.248 C5.070,12.200 5.023,12.152 4.976,12.104 C4.442,11.564 3.907,11.024 3.373,10.485 C3.161,10.270 2.949,10.056 2.738,9.843 C2.658,9.763 2.579,9.682 2.500,9.602 C2.392,9.493 2.280,9.390 2.192,9.261 C1.897,8.834 1.950,8.285 2.231,7.890 C2.554,7.434 3.243,7.141 3.852,7.533 C4.074,7.675 4.221,7.894 4.416,8.063 C4.884,8.536 5.352,9.009 5.821,9.482 C5.996,9.659 6.172,9.837 6.347,10.014 C6.348,10.014 6.348,10.014 6.348,10.013 C8.012,8.331 9.677,6.648 11.341,4.966 C11.754,4.547 12.168,4.129 12.582,3.710 C12.796,3.493 12.994,3.238 13.291,3.107 C13.379,3.068 13.474,3.040 13.583,3.022 C13.633,3.017 13.683,3.014 13.733,3.010 Z"/>
</svg>
