<svg 
 xmlns="http://www.w3.org/2000/svg"
 xmlns:xlink="http://www.w3.org/1999/xlink"
 width="10px" height="10px">
<g transform="translate(-0.5, -0.5)">
<path fill-rule="evenodd" fill="rgb(255, 255, 255)"
 d="M6.595,5.504 L9.867,2.231 C10.169,1.930 10.169,1.441 9.867,1.140 C9.566,0.839 9.078,0.839 8.776,1.140 L5.504,4.413 L2.231,1.140 C1.929,0.839 1.441,0.839 1.140,1.140 C0.839,1.441 0.839,1.930 1.140,2.231 L4.413,5.504 L1.140,8.776 C0.839,9.078 0.839,9.566 1.140,9.867 C1.441,10.169 1.929,10.169 2.231,9.867 L5.504,6.595 L8.776,9.867 C9.078,10.169 9.566,10.169 9.867,9.867 C10.169,9.566 10.169,9.078 9.867,8.776 L6.595,5.504 Z"/>
</g>
</svg>
