<svg 
 xmlns="http://www.w3.org/2000/svg"
 xmlns:xlink="http://www.w3.org/1999/xlink"
 width="26px" height="26px">
<path fill-rule="evenodd"  fill="rgb(40, 40, 40)"
 d="M25.551,2.181 C25.563,2.948 25.125,3.293 24.746,3.672 C24.214,4.203 23.681,4.736 23.150,5.268 C20.566,7.850 17.982,10.433 15.399,13.015 C15.399,13.016 15.400,13.018 15.400,13.020 C18.231,15.848 21.063,18.677 23.894,21.507 C24.154,21.768 24.415,22.029 24.676,22.290 C24.857,22.472 25.058,22.645 25.216,22.850 C25.577,23.320 25.665,23.949 25.361,24.551 C25.271,24.731 25.149,24.916 25.003,25.042 C24.818,25.201 24.637,25.347 24.393,25.450 C23.333,25.897 22.707,25.146 22.201,24.640 C21.921,24.360 21.640,24.080 21.360,23.801 C18.569,21.010 15.777,18.218 12.986,15.428 C12.984,15.428 12.982,15.428 12.980,15.429 C10.147,18.262 7.313,21.097 4.479,23.930 C4.227,24.182 3.974,24.433 3.722,24.685 C3.525,24.881 3.338,25.102 3.112,25.267 C2.650,25.599 1.987,25.696 1.422,25.378 C1.235,25.273 1.051,25.149 0.916,24.991 C0.769,24.818 0.637,24.641 0.541,24.414 C0.097,23.357 0.854,22.728 1.358,22.225 C1.637,21.945 1.917,21.665 2.197,21.384 C4.988,18.595 7.780,15.805 10.571,13.016 C10.571,13.015 10.571,13.015 10.571,13.014 C7.736,10.183 4.901,7.350 2.066,4.517 C1.814,4.266 1.563,4.013 1.310,3.760 C1.113,3.563 0.890,3.376 0.726,3.147 C0.395,2.690 0.298,2.025 0.614,1.465 C0.719,1.276 0.844,1.090 1.004,0.954 C1.175,0.809 1.351,0.677 1.575,0.583 C2.637,0.135 3.261,0.887 3.766,1.392 C4.048,1.673 4.330,1.955 4.611,2.235 C7.401,5.025 10.192,7.815 12.982,10.604 C15.500,8.089 18.018,5.573 20.536,3.057 C21.028,2.565 21.520,2.072 22.014,1.580 C22.266,1.328 22.507,1.043 22.786,0.820 C22.930,0.704 23.092,0.609 23.282,0.538 C24.231,0.185 25.117,0.929 25.390,1.535 C25.448,1.662 25.495,1.798 25.526,1.953 C25.534,2.029 25.542,2.105 25.551,2.181 Z"/>
</svg>
