<svg 
 xmlns="http://www.w3.org/2000/svg"
 xmlns:xlink="http://www.w3.org/1999/xlink"
 width="17px" height="13px">
<path fill-rule="evenodd"  fill="rgb(255, 255, 255)"
 d="M16.990,3.509 C11.331,3.509 5.670,3.509 0.011,3.509 C0.011,2.998 0.011,2.486 0.011,1.975 C0.011,1.685 -0.010,1.351 0.046,1.113 C0.116,0.818 0.266,0.571 0.462,0.402 C0.628,0.258 0.816,0.143 1.065,0.083 C1.344,0.015 1.742,0.048 2.075,0.048 C2.697,0.048 3.320,0.048 3.942,0.048 C6.896,0.048 9.851,0.048 12.804,0.048 C13.476,0.048 14.148,0.048 14.820,0.048 C15.176,0.048 15.616,0.014 15.915,0.084 C16.145,0.137 16.330,0.235 16.486,0.363 C16.699,0.537 16.855,0.776 16.940,1.079 C17.009,1.328 16.990,1.674 16.990,1.990 C16.990,2.496 16.990,3.002 16.990,3.509 ZM0.011,5.240 C5.670,5.240 11.331,5.240 16.990,5.240 C16.990,6.939 16.990,8.639 16.990,10.339 C16.990,10.653 16.990,10.967 16.990,11.281 C16.990,11.473 17.001,11.683 16.969,11.846 C16.902,12.191 16.740,12.460 16.518,12.648 C16.359,12.784 16.172,12.891 15.936,12.948 C15.654,13.017 15.251,12.984 14.915,12.984 C14.285,12.984 13.654,12.984 13.023,12.984 C10.043,12.984 7.062,12.984 4.082,12.984 C3.428,12.984 2.774,12.984 2.121,12.984 C1.791,12.984 1.353,13.017 1.077,12.951 C0.798,12.885 0.551,12.745 0.391,12.555 C0.254,12.392 0.138,12.219 0.070,11.984 C0.005,11.760 0.011,11.467 0.011,11.173 C0.011,10.843 0.011,10.513 0.011,10.182 C0.011,8.535 0.011,6.887 0.011,5.240 ZM11.552,7.731 C11.477,7.749 11.412,7.750 11.349,7.774 C11.133,7.859 10.974,8.035 10.922,8.286 C10.901,8.381 10.909,8.509 10.909,8.622 C10.909,8.821 10.909,9.019 10.909,9.217 C10.909,9.492 10.876,9.847 10.955,10.052 C11.027,10.240 11.169,10.380 11.357,10.451 C11.517,10.513 11.776,10.493 11.994,10.493 C12.411,10.493 12.829,10.493 13.247,10.493 C13.751,10.493 14.126,10.548 14.365,10.262 C14.570,10.016 14.538,9.749 14.538,9.307 C14.538,9.088 14.538,8.869 14.538,8.650 C14.538,8.518 14.546,8.372 14.521,8.265 C14.490,8.136 14.429,8.038 14.357,7.952 C14.144,7.698 13.842,7.731 13.391,7.731 C12.778,7.731 12.165,7.731 11.552,7.731 Z"/>
</svg>
