<svg 
 xmlns="http://www.w3.org/2000/svg"
 xmlns:xlink="http://www.w3.org/1999/xlink"
 width="10px" height="10px">
<path fill-rule="evenodd"  fill="rgb(40, 40, 40)"
 d="M9.709,7.225 L8.320,5.835 C8.043,5.559 7.585,5.568 7.298,5.854 L6.598,6.554 C6.554,6.530 6.508,6.504 6.460,6.477 C6.018,6.232 5.413,5.897 4.776,5.259 C4.138,4.621 3.802,4.015 3.556,3.573 C3.530,3.526 3.505,3.480 3.481,3.438 L3.950,2.968 L4.181,2.737 C4.468,2.450 4.476,1.992 4.200,1.716 L2.811,0.326 C2.535,0.050 2.076,0.058 1.789,0.345 L1.397,0.739 L1.408,0.750 C1.277,0.917 1.167,1.110 1.086,1.319 C1.010,1.517 0.963,1.706 0.942,1.896 C0.759,3.417 1.454,4.807 3.340,6.694 C5.947,9.301 8.049,9.104 8.139,9.094 C8.337,9.071 8.526,9.024 8.718,8.949 C8.925,8.868 9.118,8.759 9.285,8.628 L9.294,8.635 L9.691,8.247 C9.977,7.960 9.985,7.502 9.709,7.225 Z"/>
</svg>
