<svg 
 xmlns="http://www.w3.org/2000/svg"
 xmlns:xlink="http://www.w3.org/1999/xlink"
 width="13px" height="11px">
<path fill-rule="evenodd"  fill="rgb(0, 162, 224)"
 d="M12.849,3.576 C8.617,3.576 4.383,3.576 0.151,3.576 C0.151,3.194 0.151,2.812 0.151,2.429 C0.151,2.212 0.136,1.963 0.178,1.785 C0.230,1.564 0.342,1.379 0.488,1.253 C0.612,1.145 0.753,1.059 0.939,1.014 C1.148,0.963 1.446,0.988 1.694,0.988 C2.160,0.988 2.626,0.988 3.091,0.988 C5.300,0.988 7.510,0.988 9.719,0.988 C10.221,0.988 10.724,0.988 11.227,0.988 C11.493,0.988 11.822,0.963 12.046,1.015 C12.218,1.055 12.356,1.128 12.473,1.224 C12.632,1.354 12.749,1.532 12.812,1.759 C12.864,1.945 12.849,2.204 12.849,2.440 C12.849,2.819 12.849,3.198 12.849,3.576 ZM0.151,4.871 C4.383,4.871 8.617,4.871 12.849,4.871 C12.849,6.142 12.849,7.413 12.849,8.684 C12.849,8.919 12.849,9.154 12.849,9.389 C12.849,9.533 12.858,9.690 12.834,9.812 C12.784,10.070 12.663,10.271 12.497,10.412 C12.377,10.513 12.238,10.594 12.061,10.636 C11.850,10.688 11.549,10.663 11.298,10.663 C10.826,10.663 10.354,10.663 9.883,10.663 C7.654,10.663 5.424,10.663 3.196,10.663 C2.707,10.663 2.218,10.663 1.729,10.663 C1.482,10.663 1.155,10.688 0.948,10.638 C0.739,10.589 0.555,10.484 0.435,10.342 C0.333,10.220 0.246,10.091 0.195,9.915 C0.147,9.747 0.151,9.528 0.151,9.308 C0.151,9.061 0.151,8.814 0.151,8.567 C0.151,7.335 0.151,6.103 0.151,4.871 ZM8.783,6.734 C8.727,6.748 8.677,6.748 8.631,6.767 C8.469,6.830 8.350,6.961 8.311,7.149 C8.296,7.220 8.302,7.316 8.302,7.401 C8.302,7.549 8.302,7.697 8.302,7.845 C8.302,8.051 8.277,8.317 8.336,8.470 C8.390,8.611 8.496,8.715 8.637,8.769 C8.756,8.814 8.950,8.800 9.113,8.800 C9.425,8.800 9.738,8.800 10.050,8.800 C10.427,8.800 10.708,8.841 10.887,8.627 C11.040,8.443 11.016,8.243 11.016,7.913 C11.016,7.749 11.016,7.585 11.016,7.421 C11.016,7.323 11.022,7.213 11.003,7.133 C10.980,7.037 10.934,6.964 10.880,6.899 C10.721,6.710 10.495,6.734 10.158,6.734 C9.700,6.734 9.241,6.734 8.783,6.734 Z"/>
</svg>
