<svg 
 xmlns="http://www.w3.org/2000/svg"
 xmlns:xlink="http://www.w3.org/1999/xlink"
 width="13px" height="10px">
<path fill-rule="evenodd"  fill="rgb(0, 162, 224)"
 d="M11.733,0.010 C12.638,-0.004 13.332,1.056 12.811,1.893 C12.734,2.017 12.631,2.113 12.532,2.213 C12.404,2.343 12.276,2.472 12.148,2.602 C11.712,3.043 11.276,3.484 10.840,3.925 C9.423,5.357 8.006,6.790 6.589,8.223 C6.251,8.565 5.912,8.907 5.574,9.249 C5.369,9.426 5.214,9.661 4.982,9.811 C4.818,9.916 4.558,10.033 4.268,9.997 C3.830,9.944 3.625,9.761 3.382,9.516 C3.294,9.426 3.205,9.337 3.116,9.248 C3.070,9.200 3.023,9.152 2.976,9.104 C2.442,8.564 1.907,8.024 1.373,7.485 C1.161,7.270 0.949,7.056 0.738,6.842 C0.658,6.763 0.579,6.682 0.499,6.602 C0.392,6.493 0.280,6.390 0.192,6.261 C-0.103,5.834 -0.050,5.285 0.231,4.890 C0.554,4.434 1.243,4.141 1.852,4.533 C2.074,4.675 2.221,4.894 2.416,5.063 C2.884,5.536 3.352,6.009 3.820,6.482 C3.996,6.659 4.172,6.837 4.347,7.014 C4.348,7.014 4.348,7.014 4.348,7.013 C6.012,5.331 7.676,3.648 9.340,1.966 C9.754,1.547 10.168,1.129 10.582,0.710 C10.796,0.493 10.994,0.238 11.291,0.107 C11.379,0.068 11.474,0.040 11.583,0.022 C11.633,0.017 11.683,0.014 11.733,0.010 Z"/>
</svg>