<svg 
 xmlns="http://www.w3.org/2000/svg"
 xmlns:xlink="http://www.w3.org/1999/xlink"
 width="34px" height="26.5px">
<g transform="translate(0, -0.9)">
<path fill-rule="evenodd"  fill="rgb(40, 40, 40)"
 d="M1.599,0.984 C9.915,0.984 18.234,0.984 26.551,0.984 C28.000,0.984 29.451,0.984 30.900,0.984 C32.386,0.984 33.261,0.816 33.820,1.839 C33.952,2.080 34.071,2.453 34.026,2.850 C33.927,3.721 33.513,4.281 32.728,4.441 C32.489,4.491 32.177,4.471 31.897,4.471 C31.417,4.471 30.936,4.471 30.456,4.471 C28.971,4.471 27.486,4.471 26.000,4.471 C20.397,4.471 14.793,4.471 9.190,4.471 C7.427,4.471 5.663,4.471 3.900,4.471 C3.352,4.471 2.803,4.471 2.254,4.471 C1.928,4.471 1.563,4.494 1.294,4.430 C0.318,4.201 -0.274,3.044 0.226,1.897 C0.405,1.489 0.744,1.186 1.189,1.051 C1.315,1.013 1.455,1.020 1.599,0.984 ZM1.613,12.233 C9.926,12.233 18.240,12.233 26.553,12.233 C28.000,12.233 29.448,12.233 30.896,12.233 C32.395,12.233 33.261,12.064 33.825,13.097 C33.955,13.336 34.071,13.708 34.026,14.101 C33.928,14.961 33.517,15.528 32.744,15.688 C32.501,15.739 32.182,15.720 31.895,15.720 C31.417,15.720 30.938,15.720 30.461,15.720 C28.975,15.720 27.489,15.720 26.003,15.720 C20.400,15.720 14.795,15.720 9.192,15.720 C7.428,15.720 5.664,15.720 3.900,15.720 C3.347,15.720 2.792,15.720 2.238,15.720 C1.926,15.720 1.572,15.744 1.311,15.684 C0.347,15.457 -0.286,14.324 0.218,13.167 C0.399,12.749 0.735,12.436 1.191,12.301 C1.321,12.262 1.464,12.269 1.613,12.233 ZM1.626,23.481 C9.936,23.481 18.248,23.481 26.558,23.481 C28.003,23.481 29.450,23.481 30.896,23.481 C32.372,23.481 33.321,23.317 33.836,24.370 C33.955,24.612 34.070,24.963 34.026,25.350 C33.928,26.215 33.515,26.781 32.735,26.940 C32.495,26.988 32.181,26.969 31.899,26.969 C31.420,26.969 30.940,26.969 30.461,26.969 C28.975,26.969 27.489,26.969 26.003,26.969 C20.399,26.969 14.794,26.969 9.190,26.969 C7.427,26.969 5.662,26.969 3.898,26.969 C3.344,26.969 2.790,26.969 2.236,26.969 C1.924,26.969 1.569,26.993 1.309,26.932 C0.341,26.705 -0.284,25.568 0.220,24.411 C0.404,23.988 0.745,23.680 1.209,23.545 C1.337,23.507 1.479,23.518 1.626,23.481 Z"/>
</g>
</svg>
