<svg 
 xmlns="http://www.w3.org/2000/svg"
 xmlns:xlink="http://www.w3.org/1999/xlink"
 width="18px" height="18px">
<path fill-rule="evenodd"  fill="rgb(255, 255, 255)"
 d="M7.946,0.085 C8.588,0.082 9.154,0.139 9.670,0.262 C11.420,0.678 12.804,1.621 13.747,2.841 C14.162,3.379 14.526,3.968 14.794,4.654 C14.935,5.016 15.051,5.397 15.146,5.811 C15.329,6.614 15.354,7.747 15.188,8.591 C15.015,9.474 14.735,10.231 14.344,10.896 C14.220,11.109 14.090,11.315 13.949,11.511 C13.881,11.601 13.813,11.691 13.746,11.782 C14.930,12.965 16.114,14.149 17.298,15.333 C17.600,15.635 18.053,15.986 17.737,16.588 C17.689,16.680 17.621,16.771 17.546,16.835 C17.463,16.906 17.376,16.971 17.268,17.017 C16.799,17.214 16.501,16.949 16.265,16.713 C16.178,16.626 16.091,16.539 16.003,16.452 C14.849,15.297 13.694,14.142 12.539,12.987 C12.431,13.068 12.323,13.148 12.215,13.228 C11.998,13.382 11.768,13.521 11.531,13.656 C10.908,14.008 10.198,14.261 9.387,14.423 C9.143,14.471 8.889,14.492 8.623,14.522 C8.468,14.529 8.314,14.536 8.159,14.542 C8.063,14.541 7.966,14.540 7.869,14.539 C7.656,14.516 7.452,14.526 7.254,14.497 C6.690,14.418 6.177,14.320 5.711,14.146 C5.428,14.042 5.165,13.930 4.904,13.812 C4.531,13.644 4.185,13.419 3.868,13.191 C2.679,12.335 1.803,11.199 1.248,9.705 C1.090,9.281 0.989,8.816 0.910,8.313 C0.873,8.072 0.876,7.824 0.847,7.562 C0.846,7.443 0.845,7.324 0.844,7.205 C0.847,7.101 0.850,6.996 0.854,6.892 C0.879,6.663 0.886,6.441 0.923,6.228 C1.094,5.222 1.402,4.394 1.836,3.657 C2.737,2.130 4.150,0.945 6.014,0.382 C6.398,0.267 6.805,0.192 7.250,0.131 C7.410,0.118 7.571,0.105 7.732,0.092 C7.804,0.090 7.875,0.087 7.946,0.085 ZM8.008,1.791 C7.943,1.793 7.878,1.795 7.813,1.796 C7.677,1.808 7.541,1.819 7.405,1.830 C7.035,1.883 6.702,1.955 6.385,2.054 C5.900,2.204 5.472,2.425 5.083,2.672 C4.056,3.323 3.311,4.268 2.856,5.493 C2.740,5.805 2.668,6.146 2.606,6.513 C2.466,7.329 2.587,8.271 2.788,8.923 C3.284,10.529 4.435,11.774 5.913,12.397 C6.275,12.549 6.663,12.667 7.098,12.751 C7.263,12.783 7.432,12.796 7.611,12.817 C7.766,12.836 8.003,12.855 8.174,12.836 C8.314,12.828 8.454,12.821 8.594,12.813 C8.870,12.778 9.126,12.740 9.372,12.681 C11.185,12.245 12.527,10.967 13.192,9.378 C13.399,8.884 13.505,8.379 13.578,7.743 C13.595,7.596 13.613,7.372 13.595,7.209 C13.572,7.000 13.581,6.798 13.551,6.605 C13.475,6.115 13.369,5.681 13.208,5.282 C12.694,4.014 11.842,3.101 10.702,2.459 C9.986,2.056 9.120,1.790 8.008,1.791 Z"/>
</svg>
