<svg 
 xmlns="http://www.w3.org/2000/svg"
 xmlns:xlink="http://www.w3.org/1999/xlink"
 width="17px" height="17px">
<path fill-rule="evenodd"  fill="rgb(131, 131, 131)"
 d="M8.454,-0.010 C8.620,-0.011 8.773,-0.005 8.927,0.011 C9.010,0.016 9.094,0.021 9.177,0.027 C9.373,0.049 9.566,0.059 9.752,0.091 C9.976,0.129 10.195,0.163 10.405,0.213 C10.664,0.274 10.911,0.347 11.152,0.421 C11.745,0.606 12.288,0.864 12.780,1.154 C14.416,2.116 15.701,3.544 16.432,5.408 C16.604,5.848 16.730,6.313 16.845,6.818 C16.887,7.002 16.908,7.193 16.939,7.387 C16.974,7.615 16.974,7.851 17.000,8.094 C17.003,8.201 17.005,8.307 17.008,8.414 C17.006,8.519 17.005,8.625 17.004,8.730 C17.002,8.787 17.000,8.845 16.998,8.903 C16.987,9.056 16.975,9.211 16.963,9.364 C16.930,9.611 16.903,9.848 16.857,10.078 C16.749,10.622 16.601,11.118 16.419,11.585 C16.143,12.290 15.780,12.912 15.368,13.481 C15.207,13.702 15.032,13.907 14.857,14.113 C14.775,14.200 14.694,14.287 14.612,14.374 C14.487,14.519 14.337,14.655 14.191,14.779 C13.988,14.952 13.788,15.131 13.569,15.289 C12.694,15.921 11.705,16.436 10.488,16.729 C10.102,16.822 9.696,16.875 9.259,16.928 C9.023,16.942 8.787,16.957 8.551,16.972 C8.430,16.985 8.271,16.967 8.159,16.955 C7.935,16.930 7.713,16.932 7.502,16.902 C7.247,16.867 7.002,16.839 6.766,16.786 C6.154,16.647 5.603,16.473 5.086,16.248 C4.316,15.912 3.650,15.479 3.043,14.981 C1.847,13.999 0.879,12.625 0.365,10.962 C0.054,9.954 -0.126,8.530 0.080,7.264 C0.171,6.706 0.282,6.187 0.458,5.712 C0.527,5.528 0.593,5.347 0.667,5.171 C0.729,5.036 0.791,4.901 0.853,4.766 C0.923,4.610 1.010,4.459 1.093,4.314 C1.385,3.806 1.718,3.356 2.081,2.922 C2.284,2.680 2.510,2.443 2.750,2.237 C3.091,1.945 3.428,1.651 3.817,1.405 C4.447,1.005 5.125,0.644 5.913,0.399 C6.220,0.304 6.540,0.220 6.878,0.153 C7.075,0.114 7.278,0.089 7.486,0.060 C7.715,0.027 7.957,0.030 8.197,0.003 C8.283,-0.001 8.368,-0.006 8.454,-0.010 ZM6.424,2.015 C6.310,2.055 6.196,2.094 6.082,2.134 C5.810,2.240 5.544,2.354 5.300,2.491 C4.379,3.007 3.610,3.648 3.008,4.482 C2.843,4.709 2.675,4.947 2.544,5.205 C3.350,5.206 4.157,5.206 4.964,5.206 C4.987,5.129 5.010,5.052 5.033,4.976 C5.091,4.789 5.150,4.606 5.217,4.428 C5.439,3.845 5.675,3.289 5.968,2.776 C6.080,2.580 6.191,2.385 6.310,2.196 C6.348,2.136 6.386,2.075 6.424,2.015 ZM10.576,2.015 C10.719,2.244 10.862,2.475 10.999,2.714 C11.271,3.187 11.502,3.696 11.710,4.230 C11.795,4.449 11.875,4.674 11.947,4.906 C11.978,5.006 12.008,5.106 12.038,5.206 C12.845,5.206 13.651,5.206 14.458,5.205 C14.399,5.106 14.340,5.006 14.282,4.907 C14.109,4.629 13.919,4.374 13.717,4.128 C13.270,3.586 12.733,3.120 12.126,2.739 C11.892,2.592 11.647,2.451 11.384,2.333 C11.129,2.218 10.863,2.095 10.576,2.015 ZM8.500,2.055 C8.439,2.132 8.378,2.208 8.318,2.284 C8.201,2.437 8.089,2.594 7.978,2.752 C7.630,3.246 7.325,3.797 7.070,4.381 C6.980,4.586 6.898,4.795 6.817,5.009 C6.793,5.075 6.771,5.140 6.747,5.206 C7.916,5.206 9.086,5.206 10.254,5.205 C10.225,5.123 10.196,5.041 10.167,4.959 C10.099,4.781 10.030,4.606 9.956,4.435 C9.692,3.830 9.381,3.262 9.021,2.750 C8.896,2.571 8.769,2.397 8.637,2.225 C8.591,2.169 8.546,2.112 8.500,2.055 ZM1.889,6.906 C1.872,6.980 1.855,7.053 1.839,7.127 C1.815,7.263 1.790,7.400 1.766,7.536 C1.729,7.757 1.728,7.987 1.701,8.227 C1.700,8.307 1.699,8.386 1.697,8.465 C1.698,8.539 1.699,8.613 1.700,8.687 C1.703,8.742 1.705,8.797 1.707,8.853 C1.724,9.009 1.727,9.161 1.750,9.309 C1.775,9.467 1.796,9.622 1.826,9.772 C1.847,9.867 1.868,9.961 1.889,10.055 C2.794,10.055 3.701,10.055 4.607,10.055 C4.593,9.942 4.579,9.827 4.566,9.713 C4.553,9.566 4.540,9.419 4.527,9.271 C4.519,9.108 4.511,8.945 4.503,8.782 C4.502,8.723 4.501,8.663 4.500,8.604 C4.501,8.462 4.503,8.321 4.504,8.179 C4.525,7.977 4.512,7.780 4.534,7.587 C4.546,7.464 4.557,7.340 4.569,7.217 C4.582,7.113 4.594,7.010 4.607,6.906 C3.701,6.906 2.794,6.906 1.889,6.906 ZM6.326,6.906 C6.317,6.963 6.309,7.020 6.300,7.077 C6.284,7.220 6.267,7.363 6.250,7.506 C6.228,7.677 6.231,7.856 6.212,8.035 C6.210,8.115 6.207,8.194 6.205,8.273 C6.205,8.411 6.205,8.550 6.205,8.689 C6.207,8.747 6.208,8.805 6.209,8.863 C6.219,9.023 6.229,9.184 6.239,9.344 C6.254,9.487 6.269,9.629 6.284,9.772 C6.298,9.867 6.311,9.961 6.325,10.055 C7.775,10.055 9.226,10.055 10.677,10.055 C10.690,9.963 10.703,9.871 10.717,9.779 C10.731,9.641 10.746,9.504 10.761,9.366 C10.772,9.202 10.782,9.038 10.793,8.873 C10.794,8.804 10.796,8.735 10.798,8.667 C10.798,8.517 10.797,8.368 10.796,8.218 C10.794,8.168 10.793,8.117 10.792,8.067 C10.782,7.920 10.773,7.772 10.764,7.625 C10.749,7.486 10.735,7.348 10.720,7.210 C10.706,7.109 10.691,7.008 10.677,6.907 C9.227,6.906 7.776,6.906 6.326,6.906 ZM12.395,6.906 C12.409,7.022 12.423,7.139 12.437,7.256 C12.450,7.408 12.464,7.560 12.477,7.711 C12.484,7.873 12.492,8.034 12.500,8.196 C12.501,8.264 12.502,8.332 12.503,8.400 C12.501,8.542 12.499,8.683 12.497,8.825 C12.476,9.023 12.487,9.218 12.465,9.408 C12.453,9.533 12.441,9.658 12.429,9.783 C12.417,9.874 12.406,9.965 12.395,10.055 C13.301,10.055 14.207,10.055 15.113,10.055 C15.134,9.964 15.154,9.872 15.174,9.780 C15.204,9.633 15.225,9.482 15.249,9.328 C15.273,9.174 15.276,9.016 15.295,8.853 C15.297,8.789 15.300,8.724 15.303,8.660 C15.304,8.595 15.304,8.531 15.305,8.466 C15.303,8.387 15.301,8.307 15.300,8.228 C15.297,8.167 15.293,8.105 15.290,8.043 C15.272,7.886 15.265,7.732 15.242,7.583 C15.219,7.445 15.195,7.307 15.172,7.168 C15.152,7.081 15.133,6.993 15.113,6.906 C14.207,6.906 13.301,6.906 12.395,6.906 ZM2.543,11.755 C2.666,11.966 2.788,12.173 2.926,12.368 C3.519,13.208 4.265,13.880 5.178,14.403 C5.461,14.565 5.765,14.703 6.087,14.828 C6.164,14.855 6.240,14.883 6.317,14.910 C6.353,14.922 6.390,14.934 6.426,14.947 C6.371,14.859 6.315,14.773 6.260,14.685 C6.164,14.522 6.069,14.358 5.973,14.195 C5.702,13.718 5.476,13.205 5.267,12.667 C5.188,12.464 5.116,12.254 5.050,12.040 C5.021,11.945 4.992,11.850 4.964,11.755 C4.157,11.755 3.350,11.755 2.543,11.755 ZM6.747,11.755 C7.075,12.683 7.487,13.510 8.005,14.247 C8.117,14.406 8.230,14.561 8.347,14.713 C8.399,14.778 8.450,14.842 8.501,14.906 C8.546,14.849 8.591,14.793 8.637,14.736 C8.734,14.610 8.830,14.484 8.923,14.353 C9.297,13.824 9.634,13.251 9.912,12.626 C9.994,12.441 10.071,12.251 10.145,12.059 C10.182,11.958 10.218,11.857 10.254,11.756 C9.086,11.756 7.916,11.756 6.747,11.755 ZM12.038,11.755 C12.013,11.840 11.987,11.925 11.961,12.010 C11.905,12.192 11.846,12.369 11.781,12.542 C11.561,13.129 11.318,13.684 11.026,14.199 C10.930,14.363 10.834,14.527 10.739,14.690 C10.684,14.776 10.630,14.861 10.576,14.947 C10.720,14.908 10.860,14.849 10.994,14.796 C11.214,14.711 11.431,14.619 11.628,14.508 C11.879,14.367 12.124,14.234 12.353,14.074 C13.017,13.610 13.588,13.057 14.056,12.397 C14.201,12.192 14.328,11.976 14.459,11.755 C13.652,11.755 12.845,11.755 12.038,11.755 Z"/>
</svg>
