<svg 
 xmlns="http://www.w3.org/2000/svg"
 xmlns:xlink="http://www.w3.org/1999/xlink"
 width="13px" height="14px">
<g transform="translate(-3, -3)">
<path fill-rule="evenodd"  stroke-width="1px" stroke="rgb(40, 40, 40)" fill-opacity="0" fill="rgb(40, 40, 40)"
 d="M9.429,3.495 C10.868,3.480 11.858,4.486 12.094,5.705 C12.168,6.085 12.139,6.589 12.139,7.036 C12.139,7.473 12.111,7.790 12.013,8.116 C11.749,8.990 11.058,9.652 10.184,9.905 C10.051,9.943 9.909,9.964 9.757,9.984 C9.688,9.988 9.619,9.992 9.550,9.996 C9.444,10.008 9.326,9.995 9.232,9.982 C8.841,9.929 8.524,9.832 8.244,9.670 C7.557,9.272 7.071,8.666 6.897,7.744 C6.860,7.550 6.860,7.328 6.860,7.095 C6.860,6.877 6.860,6.659 6.860,6.441 C6.860,6.084 6.874,5.773 6.949,5.500 C7.201,4.581 7.794,3.964 8.632,3.644 C8.795,3.582 8.974,3.545 9.167,3.516 C9.254,3.509 9.342,3.502 9.429,3.495 ZM15.489,16.497 C11.496,16.497 7.502,16.497 3.509,16.497 C3.509,16.094 3.509,15.690 3.509,15.287 C3.509,14.877 3.507,14.480 3.580,14.151 C3.889,12.764 4.875,11.734 6.256,11.450 C6.541,11.392 6.873,11.389 7.222,11.389 C7.510,11.389 7.799,11.389 8.087,11.389 C8.694,11.389 9.301,11.389 9.908,11.389 C10.459,11.389 11.011,11.389 11.562,11.389 C11.922,11.389 12.305,11.373 12.615,11.428 C12.987,11.493 13.293,11.604 13.588,11.740 C13.789,11.833 13.975,11.960 14.141,12.091 C14.796,12.604 15.277,13.312 15.448,14.321 C15.495,14.599 15.489,14.930 15.489,15.258 C15.489,15.670 15.489,16.084 15.489,16.497 Z"/>
</g>
</svg>
