<svg 
 xmlns="http://www.w3.org/2000/svg"
 xmlns:xlink="http://www.w3.org/1999/xlink"
 width="19px" height="19px">
<g transform="translate(-0.7, 0)">
<path fill-rule="evenodd"  fill="rgb(131, 131, 131)"
 d="M2.316,0.161 C3.738,0.161 5.160,0.161 6.582,0.161 C6.877,0.161 7.172,0.161 7.466,0.161 C7.665,0.161 7.877,0.153 8.044,0.187 C8.314,0.240 8.526,0.350 8.708,0.493 C8.989,0.713 9.192,1.033 9.257,1.468 C9.276,1.595 9.268,1.749 9.268,1.891 C9.268,2.129 9.268,2.367 9.268,2.604 C9.268,3.722 9.268,4.840 9.268,5.958 C9.268,6.236 9.268,6.516 9.268,6.794 C9.268,6.961 9.279,7.142 9.254,7.287 C9.180,7.715 8.976,8.029 8.693,8.248 C8.521,8.381 8.322,8.480 8.072,8.536 C7.876,8.581 7.612,8.566 7.374,8.566 C6.978,8.566 6.582,8.566 6.185,8.566 C5.249,8.566 4.312,8.566 3.375,8.566 C3.144,8.566 2.913,8.566 2.682,8.566 C2.389,8.566 2.115,8.565 1.899,8.498 C1.399,8.344 1.019,7.951 0.892,7.424 C0.846,7.230 0.850,6.980 0.850,6.734 C0.850,6.442 0.850,6.150 0.850,5.858 C0.850,4.848 0.850,3.838 0.850,2.828 C0.850,2.537 0.850,2.246 0.850,1.955 C0.850,1.780 0.840,1.589 0.866,1.437 C0.902,1.232 0.964,1.059 1.053,0.908 C1.251,0.573 1.554,0.327 1.971,0.210 C2.046,0.196 2.122,0.183 2.197,0.169 C2.237,0.166 2.276,0.164 2.316,0.161 ZM12.584,0.161 C14.006,0.161 15.429,0.161 16.852,0.161 C17.146,0.161 17.440,0.161 17.733,0.161 C17.941,0.161 18.161,0.154 18.333,0.189 C18.591,0.241 18.797,0.349 18.972,0.484 C19.259,0.706 19.467,1.029 19.533,1.470 C19.552,1.598 19.544,1.751 19.544,1.894 C19.544,2.131 19.544,2.368 19.544,2.605 C19.544,3.719 19.544,4.833 19.544,5.947 C19.544,6.228 19.544,6.508 19.544,6.788 C19.544,6.960 19.554,7.145 19.528,7.293 C19.454,7.721 19.247,8.034 18.963,8.252 C18.794,8.382 18.598,8.480 18.354,8.535 C18.155,8.581 17.888,8.566 17.646,8.566 C17.249,8.566 16.851,8.566 16.454,8.566 C15.517,8.566 14.581,8.566 13.646,8.566 C13.409,8.566 13.173,8.566 12.936,8.566 C12.658,8.566 12.396,8.566 12.190,8.503 C11.676,8.345 11.295,7.957 11.165,7.417 C11.120,7.228 11.126,6.985 11.126,6.747 C11.126,6.451 11.126,6.156 11.126,5.860 C11.126,4.849 11.126,3.837 11.126,2.826 C11.126,2.535 11.126,2.244 11.126,1.953 C11.126,1.774 11.116,1.579 11.143,1.425 C11.178,1.225 11.241,1.055 11.329,0.907 C11.526,0.572 11.829,0.327 12.245,0.210 C12.320,0.196 12.395,0.183 12.470,0.169 C12.508,0.166 12.546,0.164 12.584,0.161 ZM2.291,10.420 C3.720,10.420 5.150,10.420 6.579,10.420 C6.876,10.420 7.172,10.420 7.469,10.420 C7.668,10.420 7.881,10.412 8.047,10.445 C8.308,10.497 8.516,10.602 8.693,10.739 C8.983,10.963 9.194,11.287 9.259,11.735 C9.277,11.860 9.268,12.011 9.268,12.150 C9.268,12.386 9.268,12.623 9.268,12.860 C9.268,13.975 9.268,15.090 9.268,16.204 C9.268,16.486 9.268,16.767 9.268,17.048 C9.268,17.219 9.278,17.406 9.252,17.554 C9.179,17.980 8.971,18.291 8.689,18.509 C8.521,18.639 8.324,18.737 8.082,18.793 C7.880,18.839 7.609,18.825 7.363,18.825 C6.966,18.825 6.568,18.825 6.170,18.825 C5.237,18.825 4.303,18.825 3.370,18.825 C3.137,18.825 2.905,18.825 2.672,18.825 C2.387,18.825 2.119,18.824 1.908,18.759 C1.395,18.601 1.019,18.208 0.889,17.667 C0.844,17.482 0.850,17.242 0.850,17.008 C0.850,16.711 0.850,16.413 0.850,16.116 C0.850,15.105 0.850,14.093 0.850,13.082 C0.850,12.791 0.850,12.501 0.850,12.211 C0.850,12.036 0.840,11.845 0.866,11.693 C0.901,11.493 0.961,11.322 1.048,11.174 C1.245,10.839 1.544,10.589 1.958,10.471 C2.032,10.457 2.105,10.443 2.179,10.429 C2.216,10.426 2.253,10.423 2.291,10.420 ZM12.567,10.420 C13.998,10.420 15.428,10.420 16.858,10.420 C17.156,10.420 17.453,10.420 17.751,10.420 C17.942,10.420 18.148,10.411 18.309,10.442 C18.575,10.495 18.785,10.598 18.965,10.736 C19.245,10.953 19.454,11.264 19.527,11.685 C19.553,11.837 19.544,12.027 19.544,12.202 C19.544,12.482 19.544,12.761 19.544,13.040 C19.544,14.154 19.544,15.268 19.544,16.381 C19.544,16.618 19.544,16.856 19.544,17.094 C19.544,17.240 19.552,17.396 19.532,17.525 C19.464,17.962 19.258,18.282 18.972,18.503 C18.799,18.636 18.601,18.737 18.351,18.794 C18.153,18.839 17.885,18.825 17.643,18.825 C17.246,18.825 16.849,18.825 16.451,18.825 C15.516,18.825 14.581,18.825 13.647,18.825 C13.412,18.825 13.177,18.825 12.942,18.825 C12.661,18.825 12.396,18.824 12.187,18.760 C11.676,18.603 11.295,18.213 11.165,17.675 C11.120,17.487 11.126,17.243 11.126,17.006 C11.126,16.710 11.126,16.415 11.126,16.119 C11.126,15.108 11.126,14.098 11.126,13.086 C11.126,12.795 11.126,12.503 11.126,12.212 C11.126,12.032 11.116,11.837 11.143,11.682 C11.179,11.477 11.245,11.305 11.335,11.154 C11.524,10.834 11.824,10.588 12.220,10.475 C12.294,10.460 12.368,10.445 12.443,10.430 C12.484,10.427 12.526,10.424 12.567,10.420 Z"/>
</g>
</svg>
