<svg 
 xmlns="http://www.w3.org/2000/svg"
 xmlns:xlink="http://www.w3.org/1999/xlink"
 width="10px" height="6px">
<g transform="translate(-0.5, 0)">
<path fill-rule="evenodd"  fill="rgb(127, 127, 127)"
 d="M5.502,3.926 L1.904,0.328 C1.805,0.229 1.673,0.175 1.532,0.175 C1.391,0.175 1.259,0.229 1.160,0.328 L0.844,0.644 C0.745,0.743 0.691,0.875 0.691,1.016 C0.691,1.157 0.745,1.289 0.844,1.388 L5.129,5.672 C5.228,5.771 5.361,5.826 5.502,5.825 C5.643,5.826 5.776,5.771 5.875,5.672 L10.156,1.392 C10.255,1.293 10.309,1.161 10.309,1.020 C10.309,0.879 10.255,0.747 10.156,0.648 L9.840,0.332 C9.635,0.127 9.301,0.127 9.096,0.332 L5.502,3.926 Z"/>
</g>
</svg>
