<svg 
 xmlns="http://www.w3.org/2000/svg"
 xmlns:xlink="http://www.w3.org/1999/xlink"
 width="12px" height="12px">
<path fill-rule="evenodd"  fill="rgb(0, 0, 0)"
 d="M10.293,11.520 L1.707,11.520 C1.029,11.520 0.480,10.971 0.480,10.293 L0.480,7.840 C0.480,7.162 1.029,6.613 1.707,6.613 L7.840,6.613 L7.840,4.160 L9.066,4.160 L9.066,6.613 L10.293,6.613 C10.971,6.613 11.520,7.162 11.520,7.840 L11.520,10.293 C11.520,10.971 10.971,11.520 10.293,11.520 ZM3.547,8.453 L2.320,8.453 L2.320,9.680 L3.547,9.680 L3.547,8.453 ZM5.693,8.453 L4.467,8.453 L4.467,9.680 L5.693,9.680 L5.693,8.453 ZM7.840,8.453 L6.613,8.453 L6.613,9.680 L7.840,9.680 L7.840,8.453 ZM10.499,2.728 L9.983,3.240 C9.563,2.817 9.008,2.605 8.453,2.605 C7.895,2.605 7.343,2.817 6.917,3.237 L6.408,2.728 C6.972,2.164 7.711,1.881 8.453,1.881 C9.195,1.881 9.934,2.164 10.499,2.728 ZM8.453,1.201 C7.527,1.201 6.604,1.553 5.896,2.256 L5.387,1.746 C6.233,0.906 7.343,0.480 8.453,0.480 C9.563,0.480 10.673,0.903 11.520,1.746 L11.008,2.262 C10.302,1.556 9.379,1.201 8.453,1.201 Z"/>
</svg>
