<svg 
 xmlns="http://www.w3.org/2000/svg"
 xmlns:xlink="http://www.w3.org/1999/xlink"
 width="10px" height="13px">
<path fill-rule="evenodd"  fill="rgb(131, 131, 131)"
 d="M0.239,4.256 C1.335,3.189 2.432,2.121 3.529,1.053 C3.735,0.853 3.942,0.652 4.148,0.451 C4.289,0.314 4.433,0.160 4.573,0.088 C4.749,-0.004 4.936,-0.021 5.112,-0.001 C5.230,0.013 5.344,0.052 5.462,0.124 C5.587,0.201 5.716,0.345 5.836,0.463 C6.058,0.678 6.279,0.893 6.499,1.108 C7.358,1.944 8.216,2.779 9.074,3.615 C9.233,3.769 9.391,3.923 9.549,4.077 C9.647,4.172 9.759,4.270 9.825,4.366 C10.023,4.653 10.016,4.966 9.836,5.251 C9.534,5.732 8.990,5.808 8.620,5.584 C8.517,5.522 8.414,5.415 8.312,5.315 C8.172,5.179 8.032,5.043 7.892,4.907 C7.422,4.449 6.952,3.991 6.482,3.534 C6.279,3.337 6.076,3.140 5.873,2.943 C5.874,5.549 5.875,8.156 5.876,10.762 C5.876,11.117 5.876,11.471 5.875,11.826 C5.876,12.031 5.905,12.254 5.825,12.457 C5.677,12.837 5.265,13.010 4.957,12.986 C4.664,12.963 4.256,12.819 4.145,12.433 C4.079,12.206 4.102,11.978 4.102,11.751 C4.102,11.394 4.102,11.037 4.102,10.680 C4.101,8.101 4.100,5.521 4.100,2.942 C3.400,3.623 2.701,4.303 2.002,4.983 C1.750,5.228 1.467,5.556 1.211,5.654 C0.815,5.805 0.197,5.578 0.043,5.047 C-0.019,4.833 -0.008,4.629 0.116,4.415 C0.148,4.360 0.201,4.316 0.239,4.256 Z"/>
</svg>
