<svg 
 xmlns="http://www.w3.org/2000/svg"
 xmlns:xlink="http://www.w3.org/1999/xlink"
 width="7.5px" height="11.5px">
<g transform="translate(-0.8, -0.4)">
<path fill-rule="evenodd"  fill="rgb(0, 0, 0)"
 d="M7.267,1.508 L6.560,1.508 L6.560,0.846 C6.560,0.650 6.402,0.492 6.207,0.492 L2.793,0.492 C2.598,0.492 2.439,0.650 2.439,0.846 L2.439,1.508 L1.733,1.508 C1.278,1.508 0.909,1.878 0.909,2.334 L0.909,10.683 C0.909,11.139 1.278,11.508 1.733,11.508 L7.267,11.508 C7.722,11.508 8.091,11.139 8.091,10.683 L8.091,2.334 C8.091,1.878 7.722,1.508 7.267,1.508 ZM5.442,2.334 L5.442,1.508 L5.442,1.199 L5.854,1.199 L5.854,1.508 L5.854,2.334 L5.854,3.114 L5.442,3.114 L5.442,2.334 ZM3.146,2.334 L3.146,1.508 L3.146,1.199 L4.441,1.199 L4.441,1.508 L4.441,2.334 L4.441,3.114 L3.146,3.114 L3.146,2.334 L3.146,2.334 ZM3.362,10.540 C3.362,10.735 3.204,10.894 3.009,10.894 L2.440,10.894 C2.245,10.894 2.086,10.735 2.086,10.540 L2.086,9.931 C2.086,9.736 2.245,9.578 2.440,9.578 L3.009,9.578 C3.204,9.578 3.362,9.736 3.362,9.931 L3.362,10.540 L3.362,10.540 ZM3.362,8.762 C3.362,8.957 3.204,9.116 3.009,9.116 L2.440,9.116 C2.245,9.116 2.086,8.957 2.086,8.762 L2.086,8.153 C2.086,7.958 2.245,7.800 2.440,7.800 L3.009,7.800 C3.204,7.800 3.362,7.958 3.362,8.153 L3.362,8.762 L3.362,8.762 ZM3.362,6.984 C3.362,7.180 3.204,7.338 3.009,7.338 L2.440,7.338 C2.245,7.338 2.086,7.180 2.086,6.984 L2.086,6.375 C2.086,6.180 2.245,6.022 2.440,6.022 L3.009,6.022 C3.204,6.022 3.362,6.180 3.362,6.375 L3.362,6.984 L3.362,6.984 ZM5.138,10.540 C5.138,10.735 4.980,10.894 4.785,10.894 L4.215,10.894 C4.020,10.894 3.862,10.735 3.862,10.540 L3.862,9.931 C3.862,9.736 4.020,9.578 4.215,9.578 L4.785,9.578 C4.980,9.578 5.138,9.736 5.138,9.931 L5.138,10.540 ZM5.138,8.762 C5.138,8.957 4.980,9.116 4.785,9.116 L4.215,9.116 C4.020,9.116 3.862,8.957 3.862,8.762 L3.862,8.153 C3.862,7.958 4.020,7.800 4.215,7.800 L4.785,7.800 C4.980,7.800 5.138,7.958 5.138,8.153 L5.138,8.762 ZM5.138,6.984 C5.138,7.180 4.980,7.338 4.785,7.338 L4.215,7.338 C4.020,7.338 3.862,7.180 3.862,6.984 L3.862,6.375 C3.862,6.180 4.020,6.022 4.215,6.022 L4.785,6.022 C4.980,6.022 5.138,6.180 5.138,6.375 L5.138,6.984 ZM6.914,10.540 C6.914,10.735 6.755,10.894 6.560,10.894 L5.991,10.894 C5.796,10.894 5.638,10.735 5.638,10.540 L5.638,9.931 C5.638,9.736 5.796,9.578 5.991,9.578 L6.560,9.578 C6.755,9.578 6.914,9.736 6.914,9.931 L6.914,10.540 ZM6.914,8.762 C6.914,8.957 6.755,9.116 6.560,9.116 L5.991,9.116 C5.796,9.116 5.638,8.957 5.638,8.762 L5.638,8.153 C5.638,7.958 5.796,7.800 5.991,7.800 L6.560,7.800 C6.755,7.800 6.914,7.958 6.914,8.153 L6.914,8.762 ZM6.914,6.984 C6.914,7.180 6.755,7.338 6.560,7.338 L5.991,7.338 C5.796,7.338 5.638,7.180 5.638,6.984 L5.638,6.375 C5.638,6.180 5.796,6.022 5.991,6.022 L6.560,6.022 C6.755,6.022 6.914,6.180 6.914,6.375 L6.914,6.984 ZM6.914,4.920 C6.914,5.253 6.643,5.524 6.310,5.524 L2.690,5.524 C2.356,5.524 2.086,5.253 2.086,4.920 L2.086,4.296 C2.086,3.962 2.356,3.691 2.690,3.691 L6.310,3.691 C6.643,3.691 6.914,3.962 6.914,4.296 L6.914,4.920 Z"/>
</g>
</svg>
