<svg 
 xmlns="http://www.w3.org/2000/svg"
 xmlns:xlink="http://www.w3.org/1999/xlink"
 width="13px" height="13px">
<path fill-rule="evenodd"  fill="rgb(40, 40, 40)"
 d="M6.387,0.004 C6.948,0.001 7.442,0.048 7.893,0.156 C10.113,0.686 11.693,2.177 12.440,4.189 C12.572,4.543 12.662,4.926 12.734,5.341 C12.894,6.273 12.781,7.363 12.550,8.124 C12.079,9.678 11.129,10.872 9.893,11.656 C9.549,11.875 9.182,12.065 8.777,12.224 C8.627,12.283 8.471,12.344 8.308,12.386 C8.313,12.092 8.316,11.772 8.316,11.467 C8.316,11.326 8.316,11.184 8.316,11.043 C8.430,11.015 8.539,10.950 8.642,10.904 C8.979,10.751 9.286,10.556 9.564,10.342 C10.549,9.583 11.270,8.519 11.504,7.003 C11.574,6.545 11.561,5.958 11.485,5.518 C11.421,5.147 11.330,4.811 11.209,4.498 C10.633,3.012 9.362,1.813 7.709,1.413 C7.470,1.355 7.221,1.321 6.952,1.288 C6.830,1.281 6.708,1.275 6.586,1.269 C6.521,1.269 6.457,1.270 6.392,1.271 C6.289,1.276 6.185,1.282 6.081,1.288 C5.924,1.307 5.775,1.317 5.630,1.346 C5.217,1.427 4.849,1.537 4.509,1.686 C3.176,2.272 2.140,3.386 1.690,4.859 C1.592,5.181 1.537,5.522 1.491,5.906 C1.485,6.009 1.481,6.111 1.476,6.214 C1.475,6.273 1.475,6.332 1.475,6.391 C1.489,6.520 1.478,6.645 1.492,6.767 C1.528,7.057 1.560,7.327 1.630,7.580 C2.099,9.262 3.177,10.431 4.707,11.044 C4.707,11.319 4.707,11.595 4.707,11.870 C4.707,12.042 4.702,12.225 4.715,12.386 C4.562,12.354 4.389,12.280 4.250,12.226 C3.791,12.046 3.367,11.829 2.991,11.564 C1.779,10.711 0.877,9.576 0.426,7.957 C0.292,7.479 0.213,6.944 0.213,6.336 C0.213,6.161 0.213,5.991 0.232,5.829 C0.263,5.558 0.285,5.300 0.340,5.056 C0.453,4.558 0.596,4.117 0.782,3.699 C0.960,3.299 1.184,2.937 1.426,2.600 C2.180,1.551 3.277,0.712 4.648,0.285 C4.992,0.178 5.357,0.105 5.757,0.047 C5.898,0.027 6.045,0.027 6.194,0.010 C6.258,0.008 6.323,0.006 6.387,0.004 ZM6.440,2.768 C8.179,2.755 9.367,3.840 9.841,5.101 C9.914,5.296 9.966,5.506 10.008,5.733 C10.220,6.891 9.784,7.889 9.303,8.514 C9.207,8.640 9.101,8.770 8.982,8.873 C8.936,8.916 8.890,8.959 8.845,9.001 C8.727,9.101 8.608,9.196 8.478,9.282 C8.424,9.317 8.370,9.351 8.316,9.386 C8.316,9.185 8.316,8.984 8.316,8.782 C8.314,8.671 8.313,8.560 8.312,8.449 C8.300,8.346 8.285,8.249 8.273,8.156 C8.358,8.083 8.434,7.989 8.503,7.900 C8.646,7.713 8.767,7.511 8.865,7.277 C9.078,6.766 9.110,6.037 8.907,5.487 C8.629,4.735 8.069,4.146 7.288,3.903 C6.884,3.777 6.333,3.732 5.885,3.858 C5.021,4.102 4.427,4.652 4.126,5.462 C3.962,5.902 3.925,6.510 4.066,7.007 C4.158,7.331 4.300,7.599 4.474,7.841 C4.534,7.924 4.604,7.998 4.670,8.076 C4.697,8.103 4.725,8.130 4.752,8.157 C4.747,8.190 4.741,8.222 4.735,8.254 C4.727,8.330 4.719,8.406 4.711,8.482 C4.710,8.783 4.709,9.084 4.707,9.386 C4.517,9.287 4.349,9.144 4.191,9.010 C3.383,8.332 2.700,7.014 3.066,5.483 C3.150,5.130 3.284,4.816 3.446,4.539 C3.894,3.773 4.577,3.195 5.505,2.913 C5.698,2.854 5.902,2.819 6.125,2.788 C6.197,2.782 6.269,2.777 6.341,2.771 C6.373,2.770 6.407,2.769 6.440,2.768 ZM6.488,5.720 C6.794,5.716 7.008,5.859 7.095,6.075 C7.120,6.139 7.128,6.206 7.137,6.290 C7.151,6.410 7.122,6.527 7.087,6.608 C7.001,6.805 6.822,6.921 6.569,6.951 C6.110,7.005 5.747,6.564 5.923,6.109 C5.991,5.933 6.142,5.803 6.329,5.746 C6.378,5.732 6.432,5.734 6.488,5.720 ZM6.469,7.877 C6.780,7.873 6.974,8.013 7.069,8.227 C7.143,8.394 7.139,8.632 7.139,8.881 C7.139,9.089 7.139,9.297 7.139,9.505 C7.139,10.193 7.139,10.882 7.139,11.570 C7.139,12.337 7.231,12.919 6.521,13.000 C6.391,13.014 6.273,12.966 6.197,12.919 C5.827,12.695 5.884,12.248 5.884,11.669 C5.884,10.864 5.884,10.058 5.884,9.253 C5.884,8.849 5.844,8.387 6.000,8.138 C6.073,8.023 6.187,7.935 6.335,7.896 C6.376,7.885 6.422,7.888 6.469,7.877 Z"/>
</svg>
