<svg 
 xmlns="http://www.w3.org/2000/svg"
 xmlns:xlink="http://www.w3.org/1999/xlink"
 width="17px" height="9px">
<path fill-rule="evenodd"  fill="rgb(255, 255, 255)"
 d="M16.166,8.987 C15.739,8.993 15.561,8.747 15.350,8.544 C14.922,8.135 14.494,7.724 14.066,7.314 C12.213,5.539 10.359,3.763 8.506,1.988 C8.505,1.988 8.504,1.988 8.503,1.989 C6.524,3.885 4.544,5.783 2.566,7.680 C2.293,7.940 2.020,8.202 1.747,8.463 C1.587,8.616 1.440,8.792 1.236,8.902 C0.863,9.104 0.419,8.910 0.221,8.685 C0.038,8.476 -0.107,8.114 0.079,7.797 C0.204,7.585 0.409,7.430 0.583,7.263 C0.896,6.964 1.208,6.665 1.520,6.365 C3.128,4.825 4.736,3.284 6.343,1.744 C6.763,1.342 7.183,0.940 7.602,0.538 C7.810,0.339 7.994,0.086 8.328,0.011 C8.707,-0.074 8.972,0.120 9.146,0.287 C9.634,0.754 10.122,1.222 10.609,1.688 C12.015,3.035 13.422,4.383 14.828,5.730 C15.280,6.163 15.732,6.596 16.185,7.030 C16.328,7.167 16.472,7.305 16.616,7.443 C16.707,7.530 16.805,7.613 16.880,7.715 C17.221,8.178 16.886,8.693 16.517,8.892 C16.449,8.929 16.366,8.957 16.279,8.974 C16.241,8.978 16.204,8.983 16.166,8.987 Z"/>
</svg>
