<svg 
 xmlns="http://www.w3.org/2000/svg"
 xmlns:xlink="http://www.w3.org/1999/xlink"
 width="19px" height="19px">
<g transform="translate(-0.3, 0)">
<path fill-rule="evenodd"  fill="rgb(131, 131, 131)"
 d="M1.948,0.161 C5.979,0.161 10.013,0.161 14.045,0.161 C14.915,0.161 15.784,0.161 16.654,0.161 C16.901,0.161 17.148,0.161 17.395,0.161 C17.578,0.161 17.767,0.156 17.920,0.186 C18.235,0.249 18.459,0.386 18.662,0.560 C18.869,0.736 19.031,1.003 19.104,1.310 C19.146,1.483 19.146,1.698 19.146,1.919 C19.146,2.136 19.146,2.353 19.146,2.570 C19.146,3.355 19.146,4.141 19.146,4.927 C19.146,5.420 19.146,5.914 19.146,6.406 C19.146,6.902 19.171,7.348 19.021,7.693 C18.840,8.108 18.500,8.412 18.034,8.542 C17.763,8.619 17.368,8.593 17.024,8.593 C16.426,8.593 15.828,8.593 15.230,8.593 C11.757,8.593 8.284,8.593 4.812,8.593 C4.122,8.593 3.431,8.593 2.741,8.593 C2.372,8.593 1.929,8.629 1.619,8.555 C1.186,8.452 0.866,8.194 0.667,7.857 C0.581,7.712 0.518,7.548 0.480,7.354 C0.436,7.132 0.457,6.838 0.457,6.582 C0.457,6.106 0.457,5.631 0.457,5.157 C0.457,4.273 0.457,3.390 0.457,2.507 C0.457,2.295 0.457,2.082 0.457,1.869 C0.457,1.728 0.452,1.580 0.471,1.457 C0.496,1.296 0.539,1.159 0.596,1.032 C0.775,0.633 1.117,0.340 1.569,0.212 C1.647,0.190 1.730,0.179 1.819,0.168 C1.862,0.166 1.905,0.163 1.948,0.161 ZM1.660,11.139 C6.131,11.139 10.604,11.139 15.075,11.139 C15.687,11.139 16.298,11.139 16.909,11.139 C17.160,11.139 17.411,11.139 17.662,11.139 C17.822,11.139 17.992,11.131 18.130,11.155 C18.560,11.229 18.857,11.466 19.012,11.813 C19.095,11.998 19.176,12.250 19.142,12.534 C19.075,13.092 18.816,13.455 18.361,13.625 C18.076,13.731 17.623,13.698 17.236,13.698 C16.528,13.698 15.820,13.698 15.111,13.698 C11.895,13.698 8.677,13.698 5.461,13.698 C4.521,13.698 3.581,13.698 2.642,13.698 C2.422,13.698 2.203,13.698 1.984,13.698 C1.701,13.698 1.439,13.698 1.239,13.623 C0.837,13.473 0.583,13.161 0.486,12.706 C0.462,12.592 0.446,12.437 0.462,12.301 C0.489,12.086 0.531,11.911 0.617,11.757 C0.778,11.471 1.014,11.261 1.376,11.174 C1.462,11.153 1.564,11.162 1.660,11.139 ZM1.657,16.264 C6.130,16.264 10.604,16.264 15.077,16.264 C15.688,16.264 16.300,16.264 16.912,16.264 C17.162,16.264 17.413,16.264 17.663,16.264 C17.838,16.263 18.021,16.257 18.168,16.286 C18.675,16.385 18.990,16.721 19.107,17.210 C19.138,17.340 19.161,17.513 19.141,17.674 C19.072,18.222 18.809,18.582 18.361,18.749 C18.076,18.855 17.622,18.822 17.235,18.822 C16.525,18.822 15.816,18.822 15.106,18.822 C11.897,18.822 8.688,18.822 5.478,18.822 C4.536,18.822 3.593,18.822 2.650,18.822 C2.422,18.822 2.194,18.822 1.966,18.822 C1.701,18.822 1.450,18.825 1.260,18.755 C0.861,18.609 0.601,18.316 0.496,17.877 C0.468,17.761 0.443,17.608 0.460,17.462 C0.487,17.227 0.526,17.044 0.618,16.879 C0.776,16.598 1.007,16.394 1.355,16.303 C1.420,16.292 1.487,16.281 1.552,16.270 C1.588,16.268 1.622,16.265 1.657,16.264 Z"/>
</g>
</svg>
