<svg 
 xmlns="http://www.w3.org/2000/svg"
 xmlns:xlink="http://www.w3.org/1999/xlink"
 width="14px" height="17px">
<path fill-rule="evenodd"  fill="rgb(0, 162, 224)"
 d="M11.991,6.986 C12.155,6.986 12.319,6.986 12.483,6.986 C12.600,6.986 12.721,6.981 12.825,6.998 C13.287,7.071 13.603,7.320 13.801,7.663 C13.878,7.796 13.934,7.950 13.965,8.130 C13.989,8.273 13.981,8.452 13.981,8.618 C13.981,8.886 13.981,9.154 13.981,9.423 C13.981,10.642 13.981,11.860 13.981,13.078 C13.981,13.707 13.981,14.337 13.981,14.966 C13.981,15.318 14.008,15.730 13.927,16.004 C13.789,16.464 13.462,16.793 13.004,16.927 C12.911,16.954 12.813,16.962 12.702,16.975 C9.619,16.975 6.535,16.975 3.453,16.975 C2.935,16.975 2.417,16.975 1.900,16.975 C1.604,16.975 1.261,16.997 1.019,16.938 C0.633,16.844 0.351,16.603 0.175,16.294 C0.092,16.147 0.036,15.980 0.008,15.778 C-0.005,15.688 -0.001,15.582 -0.001,15.482 C-0.001,15.324 -0.001,15.167 -0.001,15.011 C-0.001,14.336 -0.001,13.661 -0.001,12.986 C-0.001,11.792 -0.001,10.598 -0.001,9.404 C-0.001,9.140 -0.001,8.877 -0.001,8.613 C-0.001,8.449 -0.009,8.271 0.015,8.130 C0.046,7.944 0.106,7.788 0.186,7.651 C0.381,7.314 0.700,7.070 1.155,6.998 C1.257,6.981 1.378,6.986 1.494,6.986 C1.659,6.986 1.824,6.986 1.989,6.986 C1.989,6.520 1.989,6.054 1.989,5.589 C1.989,5.041 1.992,4.521 2.090,4.080 C2.497,2.254 3.644,0.957 5.232,0.338 C5.867,0.091 6.788,-0.079 7.659,0.058 C7.997,0.111 8.308,0.178 8.595,0.281 C9.239,0.514 9.765,0.834 10.239,1.236 C10.468,1.429 10.677,1.652 10.863,1.888 C11.383,2.548 11.762,3.311 11.934,4.329 C11.995,4.692 11.991,5.114 11.991,5.541 C11.991,6.023 11.991,6.504 11.991,6.986 ZM3.660,6.986 C5.880,6.986 8.100,6.986 10.319,6.986 C10.319,6.514 10.319,6.042 10.319,5.570 C10.319,5.223 10.328,4.864 10.278,4.568 C10.166,3.908 9.916,3.404 9.579,2.975 C9.493,2.867 9.402,2.752 9.299,2.662 C9.197,2.573 9.101,2.481 8.993,2.397 C8.665,2.141 8.283,1.952 7.829,1.823 C6.666,1.490 5.554,1.934 4.901,2.466 C4.795,2.553 4.684,2.645 4.596,2.749 C4.510,2.851 4.420,2.946 4.339,3.053 C4.077,3.402 3.869,3.816 3.752,4.311 C3.709,4.491 3.690,4.678 3.667,4.885 C3.665,4.984 3.663,5.083 3.660,5.182 C3.660,5.339 3.660,5.496 3.660,5.653 C3.660,6.097 3.660,6.542 3.660,6.986 ZM3.636,10.845 C3.601,10.846 3.566,10.849 3.530,10.851 C3.465,10.859 3.403,10.869 3.346,10.885 C2.976,10.993 2.719,11.248 2.590,11.602 C2.545,11.727 2.513,11.897 2.532,12.070 C2.590,12.598 2.893,12.939 3.340,13.071 C3.436,13.100 3.560,13.127 3.689,13.114 C4.194,13.064 4.512,12.809 4.675,12.413 C4.736,12.263 4.780,12.050 4.749,11.838 C4.670,11.281 4.254,10.851 3.636,10.845 ZM6.984,10.845 C6.952,10.846 6.919,10.848 6.887,10.849 C6.820,10.857 6.757,10.867 6.699,10.884 C6.333,10.988 6.072,11.238 5.944,11.584 C5.682,12.291 6.152,12.906 6.664,13.065 C6.766,13.097 6.896,13.128 7.036,13.114 C7.542,13.064 7.860,12.808 8.022,12.412 C8.084,12.260 8.127,12.042 8.095,11.829 C8.012,11.277 7.599,10.853 6.984,10.845 ZM10.330,10.845 C10.298,10.846 10.266,10.848 10.233,10.849 C10.168,10.857 10.106,10.866 10.049,10.883 C9.683,10.986 9.421,11.234 9.292,11.580 C9.030,12.279 9.488,12.888 9.987,13.057 C10.094,13.093 10.233,13.129 10.383,13.114 C10.887,13.064 11.206,12.810 11.368,12.414 C11.434,12.254 11.475,12.017 11.437,11.796 C11.346,11.265 10.935,10.852 10.330,10.845 Z"/>
</svg>
