<svg 
 xmlns="http://www.w3.org/2000/svg"
 xmlns:xlink="http://www.w3.org/1999/xlink"
 width="15px" height="15px">
<path fill-rule="evenodd"  fill="rgb(255, 255, 255)"
 d="M3.907,4.206 C6.542,1.556 9.261,0.547 11.926,0.149 C12.446,0.072 12.967,0.056 13.487,0.023 C13.709,0.023 13.930,0.022 14.151,0.021 C14.152,0.023 14.153,0.024 14.153,0.025 C14.159,0.510 14.165,0.995 14.171,1.480 C14.171,1.480 14.170,1.480 14.170,1.481 C13.993,1.481 13.816,1.481 13.638,1.481 C13.485,1.486 13.332,1.491 13.179,1.497 C12.884,1.519 12.590,1.543 12.295,1.579 C10.591,1.786 8.911,2.352 7.215,3.402 C6.786,3.668 6.378,3.990 5.944,4.329 C5.726,4.498 5.539,4.711 5.312,4.894 C5.201,5.003 5.091,5.112 4.981,5.221 C4.924,5.279 4.868,5.338 4.811,5.396 C4.666,5.560 4.520,5.725 4.374,5.889 C4.050,6.304 3.730,6.683 3.474,7.094 C3.235,7.479 3.011,7.851 2.814,8.231 C2.168,9.480 1.795,10.753 1.605,12.009 C1.527,12.530 1.502,13.044 1.468,13.562 C1.467,13.770 1.467,13.977 1.466,14.184 C1.466,14.185 1.465,14.185 1.465,14.185 C0.979,14.179 0.493,14.171 0.007,14.164 C0.008,13.936 0.008,13.707 0.009,13.478 C0.038,13.031 0.055,12.584 0.109,12.135 C0.317,10.426 0.844,8.739 1.784,7.036 C2.142,6.389 2.592,5.775 3.092,5.122 C3.265,4.897 3.477,4.696 3.662,4.465 C3.744,4.378 3.826,4.292 3.907,4.206 ZM6.600,6.768 C8.534,4.816 10.575,4.079 12.534,3.787 C12.923,3.729 13.313,3.720 13.702,3.695 C13.867,3.695 14.032,3.695 14.196,3.695 C14.197,3.696 14.197,3.697 14.199,3.699 C14.203,4.184 14.208,4.669 14.213,5.154 C14.111,5.154 14.010,5.153 13.909,5.153 C13.670,5.168 13.430,5.163 13.189,5.187 C11.859,5.317 10.562,5.695 9.236,6.517 C8.932,6.705 8.643,6.934 8.336,7.172 C7.975,7.451 7.527,7.889 7.240,8.254 C6.991,8.571 6.748,8.857 6.554,9.170 C5.817,10.354 5.412,11.491 5.234,12.675 C5.177,13.051 5.163,13.422 5.139,13.797 C5.139,13.941 5.139,14.084 5.139,14.228 C5.138,14.229 5.136,14.230 5.135,14.230 C4.650,14.223 4.164,14.217 3.680,14.210 C3.679,14.049 3.679,13.888 3.679,13.727 C3.701,13.390 3.710,13.054 3.750,12.717 C3.906,11.430 4.295,10.166 5.004,8.883 C5.273,8.397 5.614,7.935 5.992,7.445 C6.129,7.288 6.266,7.131 6.402,6.974 C6.468,6.905 6.534,6.837 6.600,6.768 ZM9.222,9.401 C10.534,8.072 11.905,7.573 13.238,7.412 C13.461,7.385 13.684,7.381 13.907,7.367 C14.018,7.367 14.129,7.367 14.240,7.367 C14.241,7.369 14.241,7.370 14.242,7.371 C14.248,7.856 14.254,8.341 14.260,8.825 C14.259,8.826 14.258,8.826 14.257,8.827 C14.049,8.807 13.826,8.825 13.618,8.845 C12.834,8.921 12.070,9.137 11.288,9.613 C10.595,10.034 9.869,10.800 9.496,11.475 C9.326,11.781 9.199,12.080 9.087,12.383 C8.947,12.765 8.882,13.163 8.838,13.548 C8.811,13.783 8.789,14.038 8.812,14.273 C8.811,14.274 8.810,14.274 8.808,14.275 C8.323,14.268 7.838,14.260 7.353,14.253 C7.353,14.153 7.352,14.054 7.351,13.955 C7.364,13.764 7.365,13.572 7.384,13.380 C7.468,12.519 7.715,11.660 8.182,10.804 C8.358,10.483 8.577,10.176 8.824,9.852 C8.915,9.746 9.006,9.639 9.097,9.533 C9.139,9.489 9.180,9.445 9.222,9.401 ZM12.068,12.151 C12.682,11.524 13.790,11.627 14.198,12.537 C14.401,12.991 14.352,13.469 13.983,13.920 C13.891,14.032 13.772,14.109 13.673,14.164 C13.129,14.465 12.234,14.365 11.863,13.570 C11.689,13.198 11.685,12.792 11.875,12.425 C11.925,12.331 12.003,12.256 12.068,12.151 Z"/>
</svg>
