<svg 
 xmlns="http://www.w3.org/2000/svg"
 xmlns:xlink="http://www.w3.org/1999/xlink"
 width="19px" height="17px">
<path fill-rule="evenodd"  fill="rgb(40, 40, 40)"
 d="M10.476,1.711 C7.562,1.711 4.647,1.711 1.733,1.711 C1.733,6.228 1.733,10.746 1.733,15.263 C4.647,15.263 7.562,15.263 10.476,15.263 C10.476,14.767 10.476,14.272 10.476,13.777 C10.476,12.979 10.373,12.435 10.971,12.188 C11.128,12.123 11.375,12.095 11.577,12.143 C11.850,12.208 12.047,12.373 12.147,12.608 C12.240,12.827 12.208,13.197 12.208,13.502 C12.208,14.093 12.208,14.683 12.208,15.274 C12.208,15.844 12.277,16.374 12.004,16.690 C11.909,16.800 11.776,16.885 11.615,16.929 C11.407,16.987 11.099,16.964 10.840,16.964 C10.337,16.964 9.835,16.964 9.332,16.964 C7.023,16.964 4.714,16.964 2.406,16.964 C2.055,16.964 1.704,16.964 1.354,16.964 C1.166,16.963 0.978,16.962 0.790,16.962 C0.396,16.913 0.144,16.730 0.041,16.399 C-0.005,16.250 0.002,16.053 0.002,15.857 C0.002,15.618 0.002,15.379 0.002,15.141 C0.002,14.286 0.002,13.430 0.002,12.576 C0.002,9.758 0.002,6.939 0.002,4.121 C0.002,3.230 0.002,2.338 0.002,1.447 C0.002,0.921 -0.039,0.482 0.252,0.236 C0.353,0.150 0.456,0.081 0.607,0.041 C0.767,-0.002 0.989,0.010 1.191,0.010 C1.518,0.010 1.844,0.010 2.170,0.010 C3.733,0.010 5.296,0.010 6.859,0.010 C8.027,0.010 9.196,0.010 10.364,0.010 C10.882,0.010 11.550,-0.058 11.859,0.155 C12.283,0.448 12.208,0.919 12.208,1.603 C12.208,2.211 12.208,2.818 12.208,3.426 C12.208,3.732 12.244,4.115 12.155,4.344 C12.066,4.575 11.884,4.739 11.637,4.814 C11.112,4.974 10.664,4.700 10.525,4.335 C10.441,4.116 10.476,3.749 10.476,3.457 C10.476,2.875 10.476,2.293 10.476,1.711 ZM14.122,3.709 C14.566,3.703 14.746,3.964 14.965,4.179 C15.111,4.323 15.258,4.467 15.404,4.611 C16.359,5.548 17.314,6.486 18.268,7.423 C18.580,7.729 19.225,8.166 18.920,8.839 C18.831,9.035 18.656,9.168 18.510,9.311 C18.268,9.549 18.026,9.787 17.783,10.026 C16.923,10.871 16.063,11.716 15.204,12.561 C14.867,12.891 14.393,13.550 13.714,13.134 C13.385,12.932 13.094,12.434 13.378,11.981 C13.471,11.833 13.611,11.720 13.734,11.599 C13.944,11.393 14.154,11.187 14.364,10.980 C14.921,10.434 15.478,9.886 16.035,9.339 C13.538,9.338 11.039,9.338 8.542,9.337 C8.127,9.337 7.712,9.337 7.298,9.337 C7.079,9.337 6.820,9.362 6.622,9.326 C6.191,9.248 5.990,8.958 5.946,8.494 C5.931,8.338 5.988,8.192 6.036,8.089 C6.251,7.616 6.631,7.636 7.310,7.636 C7.664,7.636 8.019,7.636 8.373,7.636 C10.927,7.636 13.482,7.635 16.035,7.635 C15.468,7.077 14.901,6.521 14.334,5.963 C14.132,5.765 13.929,5.566 13.727,5.368 C13.601,5.244 13.460,5.128 13.366,4.972 C13.076,4.487 13.431,3.995 13.772,3.807 C13.876,3.749 13.983,3.742 14.122,3.709 Z"/>
</svg>
