<svg 
 xmlns="http://www.w3.org/2000/svg"
 xmlns:xlink="http://www.w3.org/1999/xlink"
 width="13px" height="13px">
<path fill-rule="evenodd"  fill="rgb(0, 162, 224)"
 d="M1.401,1.430 C1.401,4.819 1.401,8.210 1.401,11.600 C4.795,11.600 8.191,11.600 11.585,11.600 C11.585,10.348 11.585,9.096 11.585,7.844 C11.585,7.668 11.585,7.491 11.585,7.314 C11.585,7.197 11.580,7.072 11.602,6.977 C11.646,6.793 11.760,6.658 11.917,6.588 C12.016,6.544 12.150,6.502 12.301,6.522 C12.592,6.561 12.787,6.718 12.848,6.985 C12.870,7.081 12.863,7.210 12.863,7.327 C12.863,7.516 12.863,7.705 12.863,7.895 C12.863,8.977 12.863,10.059 12.863,11.141 C12.863,11.377 12.863,11.612 12.863,11.848 C12.863,12.163 12.891,12.432 12.758,12.620 C12.662,12.758 12.516,12.845 12.311,12.874 C12.253,12.882 12.190,12.877 12.129,12.877 C12.011,12.877 11.893,12.877 11.775,12.877 C11.276,12.877 10.778,12.877 10.279,12.877 C7.862,12.877 5.444,12.877 3.028,12.877 C2.407,12.877 1.787,12.877 1.167,12.877 C0.783,12.877 0.472,12.901 0.293,12.693 C0.238,12.628 0.187,12.562 0.157,12.470 C0.098,12.287 0.123,11.998 0.123,11.763 C0.123,11.207 0.123,10.650 0.123,10.094 C0.123,7.744 0.123,5.392 0.123,3.042 C0.123,2.449 0.123,1.856 0.123,1.263 C0.123,0.762 0.084,0.449 0.401,0.248 C0.583,0.133 0.857,0.153 1.156,0.153 C1.393,0.153 1.630,0.153 1.866,0.153 C2.949,0.153 4.033,0.153 5.115,0.153 C5.306,0.153 5.497,0.153 5.687,0.153 C5.801,0.153 5.928,0.146 6.022,0.167 C6.293,0.229 6.451,0.422 6.490,0.714 C6.511,0.872 6.469,1.021 6.414,1.118 C6.321,1.284 6.187,1.393 5.961,1.426 C5.870,1.438 5.760,1.430 5.662,1.430 C5.497,1.430 5.332,1.430 5.166,1.430 C3.911,1.430 2.656,1.430 1.401,1.430 ZM11.958,0.153 C12.507,0.147 13.052,0.750 12.805,1.330 C12.736,1.491 12.622,1.598 12.508,1.712 C12.335,1.885 12.163,2.057 11.990,2.230 C11.990,2.230 11.990,2.230 11.989,2.230 C11.588,1.828 11.187,1.427 10.785,1.025 C10.959,0.851 11.134,0.677 11.308,0.503 C11.418,0.394 11.522,0.284 11.675,0.217 C11.731,0.192 11.793,0.173 11.862,0.161 C11.894,0.159 11.926,0.156 11.958,0.153 ZM10.181,1.627 C10.583,2.028 10.985,2.429 11.387,2.831 C11.387,2.831 11.387,2.832 11.387,2.833 C9.522,4.695 7.656,6.558 5.792,8.420 C5.726,8.484 5.661,8.548 5.595,8.613 C5.554,8.658 5.508,8.713 5.456,8.746 C5.340,8.819 5.172,8.868 5.038,8.920 C4.747,9.036 4.455,9.152 4.164,9.268 C4.069,9.305 3.973,9.343 3.877,9.380 C3.812,9.407 3.752,9.440 3.673,9.450 C3.631,9.455 3.594,9.440 3.576,9.420 C3.557,9.397 3.549,9.356 3.556,9.314 C3.568,9.244 3.600,9.185 3.625,9.124 C3.666,9.020 3.708,8.915 3.750,8.811 C3.862,8.528 3.974,8.246 4.086,7.965 C4.139,7.828 4.185,7.668 4.261,7.548 C4.293,7.497 4.347,7.463 4.386,7.417 C4.468,7.335 4.550,7.252 4.631,7.170 C6.481,5.322 8.331,3.475 10.181,1.627 Z"/>
</svg>
