<svg 
 xmlns="http://www.w3.org/2000/svg"
 xmlns:xlink="http://www.w3.org/1999/xlink"
 width="13px" height="15px">
<path fill-rule="evenodd"  fill="rgb(238, 51, 36)"
 d="M6.486,-0.009 C6.880,-0.014 7.073,0.242 7.130,0.585 C7.156,0.736 7.145,0.929 7.145,1.103 C7.145,1.333 7.145,1.564 7.145,1.794 C7.145,3.403 7.145,5.013 7.145,6.623 C7.145,6.851 7.145,7.080 7.145,7.308 C7.145,7.445 7.153,7.594 7.136,7.716 C7.082,8.084 6.909,8.288 6.537,8.331 C6.401,8.346 6.275,8.302 6.193,8.255 C6.001,8.144 5.892,7.973 5.856,7.700 C5.837,7.559 5.850,7.391 5.850,7.240 C5.850,6.980 5.850,6.719 5.850,6.459 C5.850,4.924 5.850,3.388 5.850,1.853 C5.850,1.618 5.850,1.384 5.850,1.149 C5.850,0.784 5.838,0.473 5.984,0.260 C6.066,0.140 6.185,0.047 6.344,0.008 C6.388,-0.002 6.437,0.003 6.486,-0.009 ZM4.553,1.956 C4.554,2.431 4.554,2.905 4.555,3.379 C4.438,3.410 4.327,3.483 4.221,3.533 C3.884,3.689 3.582,3.901 3.305,4.122 C2.450,4.800 1.809,5.726 1.476,6.939 C1.414,7.167 1.376,7.406 1.338,7.663 C1.269,8.144 1.290,8.749 1.366,9.203 C1.432,9.592 1.528,9.944 1.652,10.272 C2.249,11.843 3.564,13.101 5.276,13.525 C5.522,13.586 5.780,13.620 6.059,13.655 C6.189,13.671 6.325,13.658 6.462,13.674 C6.539,13.672 6.616,13.671 6.692,13.669 C6.887,13.647 7.071,13.647 7.247,13.618 C7.911,13.506 8.474,13.317 8.966,13.032 C10.177,12.331 11.060,11.297 11.498,9.804 C11.575,9.542 11.621,9.263 11.663,8.963 C11.748,8.353 11.684,7.639 11.564,7.124 C11.263,5.837 10.588,4.834 9.711,4.137 C9.428,3.913 9.121,3.693 8.777,3.534 C8.669,3.484 8.559,3.413 8.441,3.379 C8.441,2.905 8.441,2.431 8.441,1.956 C8.594,1.999 8.741,2.061 8.882,2.117 C9.305,2.287 9.683,2.500 10.041,2.734 C10.279,2.888 10.495,3.064 10.708,3.244 C10.792,3.322 10.875,3.399 10.959,3.477 C11.140,3.637 11.307,3.829 11.460,4.020 C12.005,4.701 12.446,5.466 12.729,6.422 C12.988,7.299 13.091,8.521 12.891,9.554 C12.791,10.071 12.655,10.538 12.472,10.968 C11.904,12.308 11.010,13.315 9.852,14.050 C9.323,14.387 8.715,14.654 8.028,14.825 C7.722,14.900 7.403,14.943 7.058,14.987 C6.900,15.006 6.735,14.992 6.568,15.011 C6.478,15.010 6.388,15.009 6.298,15.007 C6.239,15.005 6.180,15.002 6.120,15.000 C5.977,14.984 5.834,14.981 5.698,14.960 C5.509,14.931 5.328,14.908 5.152,14.867 C4.677,14.756 4.249,14.613 3.848,14.430 C2.160,13.659 0.847,12.181 0.274,10.263 C0.053,9.526 -0.090,8.484 0.042,7.534 C0.094,7.152 0.156,6.799 0.253,6.467 C0.757,4.746 1.813,3.417 3.182,2.587 C3.459,2.418 3.753,2.270 4.065,2.136 C4.177,2.093 4.290,2.050 4.402,2.007 C4.453,1.990 4.503,1.973 4.553,1.956 Z"/>
</svg>
